<svg width="650" height="411" viewBox="0 0 650 411" fill="none" xmlns="http://www.w3.org/2000/svg">
<g clip-path="url(#clip0_36_14747)" filter="url(#filter0_d_36_14747)">
<path d="M317.289 200.362C326.28 200.362 333.568 193.076 333.568 184.089C333.568 175.102 326.28 167.816 317.289 167.816C308.299 167.816 301.011 175.102 301.011 184.089C301.011 193.076 308.299 200.362 317.289 200.362Z" fill="#1B0551"/>
<path d="M325.646 177.305C325.401 177.072 325.076 176.941 324.737 176.941C324.399 176.941 324.073 177.072 323.828 177.305C320.374 180.059 317.272 183.227 314.591 186.737C313.933 185.464 313.275 184.191 312.617 182.918C311.857 181.449 309.638 182.747 310.397 184.215C311.36 186.077 312.322 187.939 313.285 189.801C313.401 189.991 313.564 190.148 313.759 190.257C313.953 190.366 314.172 190.423 314.395 190.423C314.618 190.423 314.837 190.366 315.031 190.257C315.225 190.148 315.388 189.991 315.505 189.801C318.361 185.779 321.776 182.183 325.646 179.122C325.885 178.88 326.019 178.554 326.019 178.214C326.019 177.874 325.885 177.547 325.646 177.305V177.305Z" fill="white"/>
<path d="M244.451 230.231L219.903 191.694L248.329 176.477L255.789 205.878L308.356 234.274C310.432 233.527 312.68 233.401 314.826 233.909C316.972 234.417 318.924 235.539 320.444 237.137C321.963 238.735 322.985 240.741 323.384 242.909C323.783 245.078 323.542 247.316 322.691 249.35C321.84 251.384 320.415 253.126 318.59 254.365C316.765 255.603 314.619 256.284 312.414 256.325C310.209 256.365 308.039 255.764 306.17 254.593C304.301 253.422 302.813 251.733 301.888 249.732L244.451 230.231Z" fill="#A0616A"/>
<path d="M201.969 145.475C194.256 156.796 221.666 197.944 221.666 197.944C223.001 195.067 235.766 227.377 237.904 225.469C243.98 220.044 253.491 204.934 258.779 204.26C261.802 203.875 251.766 182.439 251.766 182.439C251.766 182.439 247.179 169.781 240.955 153.612C239.281 149.008 236.468 144.903 232.779 141.678C229.09 138.453 224.644 136.213 219.857 135.168C219.857 135.168 209.682 134.155 201.969 145.475Z" fill="#3F3D56"/>
<path d="M261.553 268.543L185.723 270.438C171.321 278.257 171.103 295.182 175.822 315.275C175.822 315.275 174.229 327.219 177.415 330.403C180.6 333.588 182.193 333.588 180.6 339.162C179.007 344.735 187.424 353.838 186.402 354.86C185.379 355.882 182.99 361.456 182.99 361.456L190.955 406.84C190.955 406.84 196.53 485.664 198.123 487.257C199.716 488.849 201.309 487.257 199.716 491.238C198.123 495.219 196.53 493.626 198.123 495.219C199.534 496.74 200.864 498.334 202.106 499.996H221.363C221.363 499.996 222.815 492.034 222.815 491.238C222.815 490.442 224.408 485.664 224.408 484.868C224.408 484.072 223 482.664 223 482.664C222.513 481.046 222.184 479.384 222.018 477.702C222.018 476.11 217.239 414.802 217.239 414.802L226.797 335.181L249.895 413.209C249.895 413.209 249.895 481.683 251.488 483.276C253.081 484.868 253.081 484.072 252.285 487.257C251.488 490.442 248.302 489.645 250.692 492.034C253.081 494.423 253.878 490.442 253.081 494.423L252.285 498.404L276.18 498.745C276.18 498.745 279.366 492.034 277.773 489.645C276.18 487.257 276.275 487.909 278.219 484C280.162 480.091 280.959 479.295 280.162 478.498C279.366 477.702 279.366 473.467 279.366 473.467L275.383 397.285C275.383 397.285 274.587 316.868 274.587 314.479C274.527 313.25 274.753 312.024 275.248 310.897V307.655L272.197 296.167L261.553 268.543Z" fill="#2F2E41"/>
<path d="M216.001 110.925C229.013 110.925 239.562 100.38 239.562 87.3726C239.562 74.365 229.013 63.8203 216.001 63.8203C202.989 63.8203 192.44 74.365 192.44 87.3726C192.44 100.38 202.989 110.925 216.001 110.925Z" fill="#A0616A"/>
<path d="M227.782 126.49C232.858 129.507 235.894 135.049 237.637 140.689C240.864 151.131 242.807 161.926 243.422 172.838L245.263 205.504L268.063 275.06C248.303 291.775 174.025 278.859 174.025 278.859C174.025 278.859 171.745 278.099 174.025 275.82C176.306 273.541 178.525 275.56 176.245 273.281C173.965 271.002 175.537 273.541 176.297 271.261C177.057 268.982 176.297 270.502 175.537 269.742C174.777 268.982 181.421 262.144 181.421 262.144L175.34 222.219L167.74 141.685C176.861 130.289 195.203 123.571 195.203 123.571L199.942 115.043L223.639 116.938L227.782 126.49Z" fill="#3F3D56"/>
<path d="M235.424 74.8567C237.255 76.222 238.611 78.1271 239.303 80.3036C239.568 76.7466 239.585 73.1755 239.353 69.6161C239.075 67.115 237.314 66.5524 235.274 65.9005C233.432 65.3115 231.349 64.6462 230.788 62.2182C223.382 55.0159 210.49 55.3791 201.666 57.8914C196.811 59.2738 194.018 61.05 193.768 62.0905L193.716 62.3047L193.519 62.4032C189.776 64.2738 189.048 70.1806 189.096 74.8063C189.187 83.5214 192.197 93.4196 193.893 94.2238C193.983 94.2663 194.006 94.2497 194.044 94.2173C196.598 92.1774 199.713 94.3723 201.082 95.5655C201.89 90.1489 204.49 85.159 208.467 81.3928C212.444 77.6265 217.569 75.3013 223.023 74.7883C224.805 74.6162 226.572 74.32 228.312 73.9018C229.194 73.6736 230.102 73.5546 231.013 73.5475C232.583 73.5236 234.122 73.9805 235.424 74.8567V74.8567Z" fill="#2F2E41"/>
<path d="M381.685 287.311L427.007 241.304L438.948 204.508L419.732 196.738C410.213 206.337 400.415 235.72 400.415 235.72L369.481 277.222C369.234 277.314 368.988 277.411 368.745 277.526C367.321 278.198 366.094 279.226 365.183 280.511C364.273 281.795 363.709 283.293 363.547 284.859C363.384 286.425 363.629 288.006 364.257 289.45C364.884 290.894 365.874 292.152 367.13 293.102C368.386 294.052 369.866 294.662 371.427 294.873C372.988 295.084 374.577 294.889 376.04 294.306C377.503 293.724 378.792 292.775 379.78 291.549C380.769 290.324 381.425 288.864 381.685 287.311Z" fill="#FFB8B8"/>
<path d="M414.491 200.945L438.792 207.972L438.882 207.955C447.815 206.221 454.88 191.382 459.235 179.239C460.667 175.234 460.525 170.834 458.837 166.93C457.148 163.026 454.04 159.908 450.14 158.206V158.206C447.255 156.971 444.081 156.567 440.978 157.04C437.875 157.513 434.967 158.844 432.581 160.883L420.465 171.312L414.491 200.945Z" fill="#1B0551"/>
<path d="M471.616 295.878C471.616 295.878 473.142 314.184 469.327 331.727C465.512 349.269 465.512 398.676 465.512 398.676L457.119 494.951L431.94 492.663L425.073 331.727L400.657 385.881L402.946 393.508L399.897 395.415C399.897 395.415 402.183 410.288 400.657 410.288C399.131 410.288 395.316 412.576 395.316 412.576L398.368 491.138L372.426 490.375L363.27 379.779L373.189 316.472L373.952 304.268L377.385 304.409L379.133 299.31L382.345 290.539L471.616 295.878Z" fill="#2F2E41"/>
<path d="M472.935 299.725L473.071 299.535C480.334 289.37 469.411 264.946 467.764 261.405L474.702 259.154L473.14 245.877L472.4 239.957L477.703 234.656L477.718 234.524L480.77 207.828L485.208 190.097C486.88 183.394 486.737 176.367 484.795 169.737C482.852 163.108 479.18 157.114 474.155 152.372L463.897 142.704L451.432 124.266H431.329L424.436 137.28C417.753 138.824 411.824 142.663 407.682 148.127C403.539 153.592 401.446 160.336 401.766 167.185L403.328 201.319L397.212 243.819L397.209 251.51L390.326 259.156L391.829 266.668L386.591 268.912L384.279 279.7C383.321 280.963 377.004 289.383 377.004 291.685C377.004 292.031 377.259 292.365 377.807 292.736C382.112 295.65 405.908 301.591 416.44 297.378C427.659 292.894 472.254 299.621 472.704 299.69L472.935 299.725Z" fill="#1B0551"/>
<path d="M438.783 118.314C453.486 118.314 465.406 106.398 465.406 91.6998C465.406 77.0014 453.486 65.0859 438.783 65.0859C424.079 65.0859 412.159 77.0014 412.159 91.6998C412.159 106.398 424.079 118.314 438.783 118.314Z" fill="#FFB8B8"/>
<path d="M436.232 118.743C440.355 118.701 444.467 118.307 448.523 117.565C452.539 116.64 461.398 109.792 463.813 105.746C465.607 102.74 466.683 98.0911 467.271 94.7202C468.064 90.2592 467.911 85.6813 466.822 81.283C465.733 76.8847 463.732 72.7642 460.949 69.1881C459.876 67.69 458.418 66.5096 456.729 65.7718C456.579 65.7178 456.426 65.6705 456.271 65.6307C453.823 65.0539 451.603 63.7587 449.896 61.9116C449.565 61.5376 449.207 61.188 448.825 60.8654C446.911 59.3332 444.661 58.2756 442.259 57.7791C438.38 56.8477 432.83 58.0149 425.764 61.2513C422.214 62.8773 418.274 62.4237 415.238 61.8468C415.067 61.8184 414.893 61.8352 414.731 61.8953C414.569 61.9554 414.426 62.0568 414.316 62.1894C413.062 63.4283 411.386 64.147 409.623 64.2009C408.545 64.2761 407.451 65.7994 406.133 67.7829C405.834 68.2332 405.485 68.7587 405.231 69.0793L405.181 68.4771L404.588 69.1657C403.655 70.248 403.012 71.5485 402.718 72.9462C402.423 74.3439 402.488 75.7933 402.905 77.1594C403.322 78.5256 404.078 79.764 405.102 80.7594C406.127 81.7549 407.387 82.4749 408.765 82.8524C409.858 83.1132 410.975 83.2617 412.099 83.2956C412.78 83.3392 413.484 83.3843 414.161 83.4837C416.334 83.8704 418.37 84.8139 420.069 86.2219C421.769 87.6299 423.074 89.4545 423.858 91.5173C424.043 91.9941 424.335 92.4219 424.712 92.7679C425.088 93.1138 425.54 93.3686 426.031 93.5126C426.521 93.6565 427.039 93.6858 427.543 93.5982C428.047 93.5105 428.524 93.3083 428.937 93.007C429.625 92.4428 430.439 92.0531 431.309 91.8713C432.18 91.6894 433.082 91.7208 433.938 91.9628C434.682 92.3518 435.27 92.9848 435.603 93.7556C436.006 94.6136 436.655 95.3323 437.468 95.82C440.24 97.1593 440.59 103.4 439.742 108.632C438.924 113.675 437.146 117.354 435.417 117.578C434.087 117.75 433.936 117.849 433.846 118.087L433.765 118.301L433.92 118.495C434.664 118.743 435.453 118.827 436.232 118.743V118.743Z" fill="#2F2E41"/>
<path d="M414.144 203.792L401.346 187.492C388.311 191.08 365.182 211.689 365.182 211.689L317.681 232.295C316.096 232.029 314.468 232.185 312.962 232.747C311.456 233.31 310.125 234.259 309.103 235.499C308.08 236.739 307.403 238.226 307.138 239.812C306.874 241.397 307.032 243.024 307.596 244.528C308.161 246.033 309.112 247.363 310.353 248.383C311.595 249.404 313.084 250.079 314.67 250.342C316.256 250.604 317.883 250.444 319.388 249.879C320.893 249.313 322.221 248.36 323.241 247.118L385.465 229.764L414.144 203.792Z" fill="#FFB8B8"/>
<path d="M411.076 207.519L431.269 185.018L432.39 169.074C432.599 165.943 431.927 162.816 430.451 160.047C428.976 157.278 426.754 154.976 424.039 153.402V153.402C420.343 151.294 415.985 150.667 411.844 151.648C407.704 152.629 404.091 155.145 401.735 158.688C394.601 169.437 386.925 183.97 390.875 192.164L390.915 192.247L411.076 207.519Z" fill="#1B0551"/>
<path d="M224.968 292.093L172.488 265.225C168.755 263.314 167.518 258.245 169.731 253.925L203.95 187.135C206.163 182.816 211 180.856 214.733 182.767L267.214 209.636C270.947 211.547 272.183 216.616 269.97 220.935L235.752 287.725C233.539 292.045 228.701 294.004 224.968 292.093Z" fill="#1B0551"/>
<path d="M216.001 279.742L180.345 261.488C176.849 259.698 175.691 254.95 177.763 250.905L206.191 195.417C208.264 191.371 212.795 189.537 216.291 191.326L259.356 213.374C262.852 215.164 264.01 219.911 261.937 223.957L246.494 254.101C237.261 272.121 231.574 287.715 216.001 279.742Z" fill="white"/>
<path d="M233.63 249.443L202.049 233.274C201.663 232.999 201.388 232.594 201.276 232.134C201.164 231.673 201.221 231.188 201.437 230.766C201.653 230.344 202.014 230.014 202.453 229.836C202.893 229.658 203.381 229.644 203.83 229.796L235.412 245.965C235.798 246.24 236.072 246.645 236.185 247.105C236.297 247.566 236.24 248.051 236.024 248.473C235.808 248.895 235.447 249.225 235.007 249.403C234.568 249.581 234.079 249.595 233.63 249.443V249.443Z" fill="#1B0551"/>
<path d="M205.735 243.831L198.528 240.141C198.142 239.866 197.868 239.462 197.755 239.001C197.643 238.541 197.7 238.055 197.916 237.633C198.133 237.211 198.493 236.881 198.933 236.703C199.372 236.525 199.861 236.511 200.31 236.664L207.517 240.353C207.903 240.628 208.178 241.033 208.29 241.494C208.402 241.954 208.345 242.44 208.129 242.862C207.913 243.283 207.552 243.614 207.113 243.792C206.673 243.97 206.184 243.984 205.735 243.831V243.831Z" fill="#1B0551"/>
<path d="M214.981 257.237L195.009 247.012C194.623 246.737 194.348 246.333 194.236 245.872C194.124 245.412 194.181 244.926 194.397 244.504C194.613 244.082 194.974 243.752 195.413 243.574C195.853 243.396 196.341 243.382 196.79 243.535L216.763 253.76C217.149 254.035 217.423 254.439 217.535 254.9C217.648 255.36 217.59 255.846 217.374 256.268C217.158 256.69 216.797 257.02 216.358 257.198C215.919 257.376 215.43 257.39 214.981 257.237V257.237Z" fill="#1B0551"/>
<path d="M246.128 225.048L214.547 208.879C214.161 208.604 213.886 208.2 213.774 207.739C213.662 207.279 213.719 206.793 213.935 206.371C214.151 205.949 214.512 205.619 214.951 205.441C215.391 205.263 215.88 205.249 216.328 205.402L247.91 221.57C248.296 221.845 248.57 222.25 248.683 222.711C248.795 223.171 248.738 223.657 248.522 224.079C248.306 224.5 247.945 224.831 247.506 225.009C247.066 225.186 246.577 225.201 246.128 225.048V225.048Z" fill="#1B0551"/>
<path d="M218.233 219.441L211.026 215.751C210.64 215.476 210.366 215.071 210.253 214.61C210.141 214.15 210.198 213.664 210.414 213.242C210.631 212.821 210.991 212.491 211.431 212.312C211.87 212.134 212.359 212.12 212.808 212.273L220.015 215.963C220.401 216.238 220.676 216.643 220.788 217.103C220.9 217.564 220.843 218.049 220.627 218.471C220.411 218.893 220.05 219.223 219.611 219.401C219.171 219.579 218.682 219.593 218.233 219.441V219.441Z" fill="#1B0551"/>
<path d="M227.479 232.847L207.507 222.622C207.121 222.347 206.846 221.942 206.734 221.481C206.622 221.021 206.679 220.535 206.895 220.114C207.111 219.692 207.472 219.362 207.911 219.184C208.351 219.006 208.84 218.992 209.288 219.144L229.261 229.369C229.647 229.644 229.921 230.049 230.033 230.509C230.146 230.97 230.089 231.455 229.872 231.877C229.656 232.299 229.296 232.629 228.856 232.807C228.417 232.985 227.928 232.999 227.479 232.847L227.479 232.847Z" fill="#1B0551"/>
<path d="M181.48 233.946L169.624 189.824L201.307 183.828L199.603 214.113L241.231 256.961C243.435 256.871 245.617 257.424 247.512 258.553C249.407 259.681 250.933 261.336 251.903 263.316C252.873 265.296 253.246 267.516 252.976 269.704C252.706 271.893 251.805 273.955 250.383 275.64C248.96 277.326 247.078 278.561 244.966 279.195C242.854 279.83 240.602 279.836 238.486 279.214C236.37 278.591 234.481 277.367 233.05 275.689C231.618 274.012 230.705 271.955 230.423 269.768L181.48 233.946Z" fill="#A0616A"/>
<path d="M166.382 140.354C155.628 148.841 169.431 196.312 169.431 196.312C171.568 193.968 174.051 228.618 176.663 227.438C184.087 224.085 197.695 212.522 202.94 213.464C205.94 214.003 202.797 190.545 202.797 190.545C202.797 190.545 202.219 177.095 201.133 159.804C200.916 154.91 199.465 150.15 196.913 145.967C194.361 141.785 190.792 138.316 186.539 135.883C186.539 135.883 177.136 131.867 166.382 140.354Z" fill="#3F3D56"/>
<path d="M345.322 331.882L316.683 318.363C316.071 318.076 315.532 317.653 315.106 317.128C314.68 316.602 314.379 315.987 314.225 315.328C314.069 314.684 314.062 314.013 314.203 313.365C314.345 312.718 314.631 312.111 315.04 311.59C323.336 300.991 329.032 288.597 331.672 275.401C331.872 274.391 332.416 273.481 333.212 272.826C334.007 272.172 335.005 271.814 336.035 271.812C350.641 271.862 361.557 277.193 368.479 287.656C368.844 288.201 369.086 288.818 369.188 289.465C369.29 290.112 369.249 290.774 369.069 291.404C365.061 305.213 358.962 318.328 350.984 330.293C350.392 331.197 349.492 331.856 348.451 332.149C347.41 332.441 346.298 332.346 345.322 331.882Z" fill="#1B0551"/>
<path d="M353.746 312.918L331.848 302.582C331.304 302.325 330.883 301.862 330.68 301.295C330.477 300.728 330.507 300.104 330.764 299.559C331.022 299.014 331.485 298.594 332.052 298.391C332.619 298.188 333.244 298.218 333.788 298.475L355.686 308.812C355.955 308.939 356.197 309.118 356.398 309.339C356.598 309.56 356.753 309.818 356.854 310.099C356.955 310.379 356.999 310.677 356.985 310.975C356.97 311.273 356.897 311.565 356.77 311.835C356.642 312.104 356.463 312.346 356.242 312.546C356.021 312.747 355.763 312.902 355.482 313.002C355.201 313.103 354.904 313.147 354.606 313.133C354.308 313.119 354.015 313.046 353.746 312.918H353.746Z" fill="white"/>
<path d="M357.148 305.719L335.251 295.383C334.706 295.126 334.286 294.663 334.082 294.096C333.879 293.529 333.909 292.904 334.167 292.36C334.424 291.815 334.887 291.395 335.454 291.192C336.021 290.989 336.646 291.019 337.191 291.276L359.088 301.612C359.633 301.87 360.053 302.332 360.256 302.899C360.46 303.466 360.429 304.091 360.172 304.635C359.915 305.18 359.452 305.6 358.885 305.803C358.317 306.007 357.693 305.976 357.148 305.719V305.719Z" fill="white"/>
</g>
<defs>
<filter id="filter0_d_36_14747" x="-4" y="0" width="658" height="411" filterUnits="userSpaceOnUse" color-interpolation-filters="sRGB">
<feFlood flood-opacity="0" result="BackgroundImageFix"/>
<feColorMatrix in="SourceAlpha" type="matrix" values="0 0 0 0 0 0 0 0 0 0 0 0 0 0 0 0 0 0 127 0" result="hardAlpha"/>
<feOffset dy="4"/>
<feGaussianBlur stdDeviation="2"/>
<feComposite in2="hardAlpha" operator="out"/>
<feColorMatrix type="matrix" values="0 0 0 0 0 0 0 0 0 0 0 0 0 0 0 0 0 0 0.25 0"/>
<feBlend mode="normal" in2="BackgroundImageFix" result="effect1_dropShadow_36_14747"/>
<feBlend mode="normal" in="SourceGraphic" in2="effect1_dropShadow_36_14747" result="shape"/>
</filter>
<clipPath id="clip0_36_14747">
<rect width="650" height="403" fill="white"/>
</clipPath>
</defs>
</svg>
