<svg width="837" height="316" viewBox="0 0 837 316" fill="none" xmlns="http://www.w3.org/2000/svg">
<g clip-path="url(#clip0_36_14907)">
<path d="M216.975 250.041C216.217 249.584 215.568 248.965 215.074 248.23C214.58 247.494 214.253 246.658 214.116 245.782C213.979 244.905 214.036 244.01 214.282 243.158C214.528 242.306 214.957 241.518 215.539 240.85L204.879 222.123L216.034 222.845L224.447 240.518C225.502 241.573 226.134 242.979 226.223 244.47C226.312 245.961 225.853 247.432 224.932 248.606C224.011 249.78 222.692 250.574 221.226 250.839C219.759 251.103 218.247 250.82 216.975 250.041Z" fill="#FFB6B6"/>
<path d="M204.457 222.926C204.457 222.926 206.487 251.9 202.489 266.491C198.49 281.083 197.777 369.327 197.777 369.327H184.375L172.76 249.209L145.983 369.751L133.218 368.871L140.218 226.829L204.457 222.926Z" fill="#2F2E41"/>
<path d="M145.756 125.257L156.001 117.764L173.168 121.51L177.815 132.577L185.822 136.556C188.455 137.864 190.731 139.794 192.456 142.179C194.18 144.564 195.301 147.333 195.723 150.247L207.162 229.422L140.218 226.828L132.113 133.585C132.029 132.611 132.14 131.63 132.44 130.7C132.741 129.769 133.224 128.909 133.862 128.169C134.5 127.43 135.28 126.826 136.155 126.394C137.03 125.961 137.982 125.709 138.956 125.653L145.756 125.257Z" fill="#3F3D56"/>
<path d="M190.059 142.742L196.242 151.096L223.172 233.42L210.549 238.486L190.335 200.125L190.059 142.742Z" fill="#3F3D56"/>
<path d="M167.645 113.851C175.903 113.851 182.598 107.141 182.598 98.8649C182.598 90.5884 175.903 83.8789 167.645 83.8789C159.388 83.8789 152.693 90.5884 152.693 98.8649C152.693 107.141 159.388 113.851 167.645 113.851Z" fill="#FFB9B9"/>
<path opacity="0.1" d="M135.05 160.523L159.45 194.537L186.723 212.362L135.05 160.523Z" fill="black"/>
<path d="M159.721 109.7C158.681 107.619 157.611 105.353 158.009 103.06C158.406 100.767 161.032 98.7683 163.059 99.9053C163.9 96.8598 167.622 95.527 170.755 95.8785C173.888 96.2301 176.773 97.7448 179.858 98.3951C182.944 99.0454 186.69 98.5295 188.358 95.8477L184.368 95.7786L188.523 90.9486L183.707 90.5875C185.375 88.783 184.932 85.7172 183.317 83.8647C181.702 82.0123 179.251 81.1357 176.86 80.5815C172.086 79.4786 167.138 79.3646 162.319 80.2465C160.046 80.5976 157.857 81.3612 155.858 82.4998C153.976 83.6504 152.42 85.267 151.342 87.1942C150.178 89.3684 149.549 91.7898 149.507 94.2568C149.435 97.5614 150.193 100.831 151.71 103.766C153.227 106.701 155.454 109.207 158.188 111.056" fill="#2F2E41"/>
<path d="M716.432 385.26H252.418C247.64 385.255 243.059 383.35 239.68 379.963C236.301 376.577 234.4 371.985 234.395 367.196V18.0643C234.4 13.275 236.301 8.68334 239.68 5.29681C243.059 1.91028 247.64 0.00537682 252.418 0H716.432C721.21 0.00546184 725.791 1.9104 729.17 5.29693C732.549 8.68346 734.449 13.275 734.455 18.0643V367.196C734.449 371.985 732.549 376.577 729.17 379.963C725.791 383.35 721.21 385.255 716.432 385.26V385.26Z" fill="#E4E4E4"/>
<path d="M599.649 160.301H528.021C524.481 160.301 521.086 158.892 518.583 156.383C516.08 153.874 514.674 150.472 514.674 146.924C514.674 143.376 516.08 139.974 518.583 137.465C521.086 134.956 524.481 133.547 528.021 133.547H599.649C603.188 133.547 606.583 134.956 609.086 137.465C611.589 139.974 612.995 143.376 612.995 146.924C612.995 150.472 611.589 153.874 609.086 156.383C606.583 158.892 603.188 160.301 599.649 160.301Z" fill="white"/>
<path d="M536.919 196.865H520.013C518.715 196.865 517.47 196.348 516.552 195.428C515.635 194.508 515.119 193.26 515.119 191.96C515.119 190.659 515.635 189.411 516.552 188.491C517.47 187.571 518.715 187.055 520.013 187.055H536.919C538.217 187.055 539.462 187.571 540.379 188.491C541.297 189.411 541.813 190.659 541.813 191.96C541.813 193.26 541.297 194.508 540.379 195.428C539.462 196.348 538.217 196.865 536.919 196.865V196.865Z" fill="white"/>
<path d="M607.212 196.865H590.306C589.008 196.865 587.763 196.348 586.845 195.428C585.928 194.508 585.412 193.26 585.412 191.96C585.412 190.659 585.928 189.411 586.845 188.491C587.763 187.571 589.008 187.055 590.306 187.055H607.212C608.51 187.055 609.755 187.571 610.672 188.491C611.59 189.411 612.106 190.659 612.106 191.96C612.106 193.26 611.59 194.508 610.672 195.428C609.755 196.348 608.51 196.865 607.212 196.865V196.865Z" fill="white"/>
<path d="M571.62 196.865H554.714C553.416 196.865 552.171 196.348 551.254 195.428C550.336 194.508 549.82 193.26 549.82 191.96C549.82 190.659 550.336 189.411 551.254 188.491C552.171 187.571 553.416 187.055 554.714 187.055H571.62C572.918 187.055 574.163 187.571 575.08 188.491C575.998 189.411 576.514 190.659 576.514 191.96C576.514 193.26 575.998 194.508 575.08 195.428C574.163 196.348 572.918 196.865 571.62 196.865V196.865Z" fill="white"/>
<path d="M536.919 215.593H520.013C518.715 215.593 517.47 215.076 516.552 214.156C515.635 213.237 515.119 211.989 515.119 210.688C515.119 209.387 515.635 208.14 516.552 207.22C517.47 206.3 518.715 205.783 520.013 205.783H536.919C538.217 205.783 539.462 206.3 540.379 207.22C541.297 208.14 541.813 209.387 541.813 210.688C541.813 211.989 541.297 213.237 540.379 214.156C539.462 215.076 538.217 215.593 536.919 215.593Z" fill="white"/>
<path d="M607.212 215.593H590.306C589.008 215.593 587.763 215.076 586.845 214.156C585.928 213.237 585.412 211.989 585.412 210.688C585.412 209.387 585.928 208.14 586.845 207.22C587.763 206.3 589.008 205.783 590.306 205.783H607.212C608.51 205.783 609.755 206.3 610.672 207.22C611.59 208.14 612.106 209.387 612.106 210.688C612.106 211.989 611.59 213.237 610.672 214.156C609.755 215.076 608.51 215.593 607.212 215.593Z" fill="white"/>
<path d="M571.62 215.593H554.714C553.416 215.593 552.171 215.076 551.254 214.156C550.336 213.237 549.82 211.989 549.82 210.688C549.82 209.387 550.336 208.14 551.254 207.22C552.171 206.3 553.416 205.783 554.714 205.783H571.62C572.918 205.783 574.163 206.3 575.08 207.22C575.998 208.14 576.514 209.387 576.514 210.688C576.514 211.989 575.998 213.237 575.08 214.156C574.163 215.076 572.918 215.593 571.62 215.593Z" fill="white"/>
<path d="M536.919 234.322H520.013C518.715 234.322 517.47 233.805 516.552 232.885C515.635 231.965 515.119 230.718 515.119 229.417C515.119 228.116 515.635 226.868 516.552 225.948C517.47 225.029 518.715 224.512 520.013 224.512H536.919C538.217 224.512 539.462 225.029 540.379 225.948C541.297 226.868 541.813 228.116 541.813 229.417C541.813 230.718 541.297 231.965 540.379 232.885C539.462 233.805 538.217 234.322 536.919 234.322Z" fill="white"/>
<path d="M607.212 234.322H590.306C589.008 234.322 587.763 233.805 586.845 232.885C585.928 231.965 585.412 230.718 585.412 229.417C585.412 228.116 585.928 226.868 586.845 225.948C587.763 225.029 589.008 224.512 590.306 224.512H607.212C608.51 224.512 609.755 225.029 610.672 225.948C611.59 226.868 612.106 228.116 612.106 229.417C612.106 230.718 611.59 231.965 610.672 232.885C609.755 233.805 608.51 234.322 607.212 234.322Z" fill="white"/>
<path d="M571.62 234.322H554.714C553.416 234.322 552.171 233.805 551.254 232.885C550.336 231.965 549.82 230.718 549.82 229.417C549.82 228.116 550.336 226.868 551.254 225.948C552.171 225.029 553.416 224.512 554.714 224.512H571.62C572.918 224.512 574.163 225.029 575.08 225.948C575.998 226.868 576.514 228.116 576.514 229.417C576.514 230.718 575.998 231.965 575.08 232.885C574.163 233.805 572.918 234.322 571.62 234.322Z" fill="white"/>
<path d="M536.919 253.05H520.013C518.715 253.05 517.47 252.533 516.552 251.613C515.635 250.694 515.119 249.446 515.119 248.145C515.119 246.844 515.635 245.597 516.552 244.677C517.47 243.757 518.715 243.24 520.013 243.24H536.919C538.217 243.24 539.462 243.757 540.379 244.677C541.297 245.597 541.813 246.844 541.813 248.145C541.813 249.446 541.297 250.694 540.379 251.613C539.462 252.533 538.217 253.05 536.919 253.05Z" fill="white"/>
<path d="M607.212 253.05H590.306C589.008 253.05 587.763 252.533 586.845 251.613C585.928 250.694 585.412 249.446 585.412 248.145C585.412 246.844 585.928 245.597 586.845 244.677C587.763 243.757 589.008 243.24 590.306 243.24H607.212C608.51 243.24 609.755 243.757 610.672 244.677C611.59 245.597 612.106 246.844 612.106 248.145C612.106 249.446 611.59 250.694 610.672 251.613C609.755 252.533 608.51 253.05 607.212 253.05Z" fill="white"/>
<path d="M571.62 253.05H554.714C553.416 253.05 552.171 252.533 551.254 251.613C550.336 250.694 549.82 249.446 549.82 248.145C549.82 246.844 550.336 245.597 551.254 244.677C552.171 243.757 553.416 243.24 554.714 243.24H571.62C572.918 243.24 574.163 243.757 575.08 244.677C575.998 245.597 576.514 246.844 576.514 248.145C576.514 249.446 575.998 250.694 575.08 251.613C574.163 252.533 572.918 253.05 571.62 253.05Z" fill="white"/>
<path d="M422.581 233.429C447.643 233.429 467.96 213.066 467.96 187.947C467.96 162.828 447.643 142.465 422.581 142.465C397.519 142.465 377.202 162.828 377.202 187.947C377.202 213.066 397.519 233.429 422.581 233.429Z" fill="#CACACA"/>
<path d="M422.581 243.686C419.043 243.682 415.65 242.271 413.148 239.763C410.646 237.255 409.238 233.855 409.234 230.309V145.587C409.233 143.83 409.577 142.089 410.247 140.465C410.917 138.84 411.9 137.364 413.14 136.121C414.379 134.878 415.851 133.891 417.471 133.219C419.091 132.546 420.827 132.199 422.581 132.199C424.335 132.199 426.071 132.546 427.691 133.219C429.311 133.891 430.783 134.878 432.023 136.121C433.262 137.364 434.245 138.84 434.915 140.465C435.585 142.089 435.929 143.83 435.928 145.587V230.309C435.924 233.855 434.516 237.255 432.014 239.763C429.512 242.271 426.12 243.682 422.581 243.686V243.686Z" fill="white"/>
<path d="M541.133 154.559H528.676C528.204 154.559 527.751 154.371 527.418 154.037C527.084 153.703 526.896 153.249 526.896 152.776C526.896 152.303 527.084 151.849 527.418 151.515C527.751 151.18 528.204 150.992 528.676 150.992H541.133C541.605 150.992 542.058 151.18 542.391 151.515C542.725 151.849 542.913 152.303 542.913 152.776C542.913 153.249 542.725 153.703 542.391 154.037C542.058 154.371 541.605 154.559 541.133 154.559Z" fill="#E4E4E4"/>
<path d="M560.708 155.003H548.251C547.779 155.003 547.327 154.815 546.993 154.48C546.659 154.146 546.472 153.692 546.472 153.219C546.472 152.746 546.659 152.292 546.993 151.958C547.327 151.623 547.779 151.436 548.251 151.436H560.708C561.18 151.436 561.633 151.623 561.967 151.958C562.3 152.292 562.488 152.746 562.488 153.219C562.488 153.692 562.3 154.146 561.967 154.48C561.633 154.815 561.18 155.003 560.708 155.003Z" fill="#E4E4E4"/>
<path d="M580.283 155.45H567.826C567.354 155.45 566.902 155.262 566.568 154.928C566.234 154.593 566.047 154.139 566.047 153.666C566.047 153.193 566.234 152.74 566.568 152.405C566.902 152.071 567.354 151.883 567.826 151.883H580.283C580.755 151.883 581.208 152.071 581.542 152.405C581.876 152.74 582.063 153.193 582.063 153.666C582.063 154.139 581.876 154.593 581.542 154.928C581.208 155.262 580.755 155.45 580.283 155.45Z" fill="#E4E4E4"/>
<path d="M599.859 155.895H587.402C586.93 155.895 586.477 155.707 586.143 155.373C585.81 155.038 585.622 154.585 585.622 154.112C585.622 153.639 585.81 153.185 586.143 152.851C586.477 152.516 586.93 152.328 587.402 152.328H599.859C600.331 152.328 600.783 152.516 601.117 152.851C601.451 153.185 601.638 153.639 601.638 154.112C601.638 154.585 601.451 155.038 601.117 155.373C600.783 155.707 600.331 155.895 599.859 155.895Z" fill="#E4E4E4"/>
<path d="M293.562 330.189C293.561 332.398 293.998 334.584 294.847 336.622C295.697 338.66 296.941 340.508 298.509 342.059H291.159C288.991 342.059 286.843 341.631 284.84 340.799C282.836 339.968 281.016 338.748 279.482 337.212C277.949 335.675 276.732 333.85 275.903 331.842C275.073 329.834 274.646 327.682 274.646 325.508V57.18C274.646 55.0065 275.073 52.8542 275.903 50.8462C276.732 48.8381 277.949 47.0135 279.482 45.4766C281.016 43.9397 282.836 42.7205 284.84 41.8888C286.843 41.057 288.991 40.6289 291.159 40.6289H301.855C299.333 42.0994 297.239 44.2075 295.784 46.7427C294.329 49.2778 293.563 52.1514 293.562 55.0762L293.562 330.189Z" fill="#CACACA"/>
<path d="M291.782 119.037C286.159 117.459 280.515 115.996 274.85 114.65C255.478 110.015 235.838 106.584 216.044 104.376C212.689 103.491 209.12 103.969 206.116 105.708C203.111 107.447 200.913 110.305 200.001 113.66L190.115 150.224C189.208 153.594 189.672 157.188 191.405 160.216C193.138 163.244 195.999 165.459 199.36 166.374L199.494 166.401C212.574 167.891 225.778 169.96 238.911 172.599C240.086 172.831 241.252 173.072 242.426 173.322C246.635 174.196 250.831 175.129 255.016 176.122C256.849 176.55 258.673 176.996 260.506 177.451C265.436 178.681 270.368 179.992 275.304 181.384C280.794 182.935 286.286 184.591 291.782 186.351C292.379 186.529 292.975 186.717 293.562 186.913V119.546C292.975 119.367 292.379 119.198 291.782 119.037Z" fill="white"/>
<path d="M291.782 119.037C286.159 117.459 280.515 115.996 274.85 114.65C255.478 110.015 235.838 106.584 216.044 104.376C212.689 103.491 209.12 103.969 206.116 105.708C203.111 107.447 200.913 110.305 200.001 113.66L190.115 150.224C189.208 153.594 189.672 157.188 191.405 160.216C193.138 163.244 195.999 165.459 199.36 166.374L199.494 166.401C212.574 167.891 225.778 169.96 238.911 172.599C240.086 172.831 241.252 173.072 242.426 173.322C246.635 174.196 250.831 175.129 255.016 176.122C256.849 176.55 258.673 176.996 260.506 177.451C265.436 178.681 270.368 179.992 275.304 181.384C280.794 182.935 286.286 184.591 291.782 186.351C292.379 186.529 292.975 186.717 293.562 186.913V185.031C292.966 184.844 292.37 184.656 291.782 184.469C286.728 182.855 281.681 181.336 276.638 179.912C274.752 179.368 272.866 178.842 270.979 178.334C267.58 177.415 264.19 176.535 260.809 175.694C259.012 175.239 257.217 174.802 255.426 174.383C255.292 174.347 255.15 174.32 255.016 174.285C251.964 173.562 248.906 172.873 245.843 172.216C244.668 171.966 243.494 171.716 242.319 171.476C228.154 168.533 213.881 166.241 199.76 164.635C196.872 163.829 194.419 161.912 192.934 159.302C191.449 156.691 191.053 153.598 191.833 150.696L201.718 114.124C202.509 111.214 204.419 108.737 207.03 107.237C209.641 105.737 212.738 105.337 215.643 106.124L215.777 106.142C235.32 108.317 254.712 111.688 273.844 116.237C274.04 116.291 274.236 116.335 274.431 116.38C280.233 117.771 286.017 119.275 291.782 120.892C292.369 121.053 292.966 121.222 293.562 121.401V119.546C292.975 119.367 292.379 119.198 291.782 119.037Z" fill="#1B0551"/>
<path d="M293.562 120.472V185.966C292.966 185.77 292.379 185.583 291.782 185.396C286.524 183.71 281.248 182.123 275.953 180.633C270.872 179.189 265.774 177.83 260.658 176.558C258.843 176.112 257.036 175.675 255.221 175.247C255.15 174.926 255.079 174.605 255.017 174.284C254.687 172.75 254.43 171.198 254.234 169.637C254.145 169.04 254.082 168.442 254.02 167.836C253.084 158.282 254.389 148.64 257.831 139.681C261.273 130.722 266.757 122.693 273.845 116.236C274.103 115.986 274.369 115.746 274.637 115.514C280.385 116.887 286.1 118.373 291.782 119.973C292.379 120.124 292.975 120.294 293.562 120.472Z" fill="#1B0551"/>
<path d="M234.471 147.29L209.726 144.365C208.856 144.261 207.974 144.331 207.13 144.57C206.286 144.809 205.498 145.212 204.81 145.756C204.122 146.3 203.547 146.974 203.119 147.741C202.691 148.508 202.417 149.351 202.315 150.224C202.212 151.096 202.281 151.981 202.52 152.826C202.758 153.672 203.16 154.462 203.703 155.152C204.245 155.841 204.919 156.417 205.683 156.846C206.448 157.276 207.29 157.549 208.161 157.652L232.905 160.578C234.661 160.781 236.426 160.278 237.812 159.18C239.199 158.081 240.094 156.476 240.301 154.717C240.508 152.957 240.011 151.187 238.918 149.795C237.825 148.403 236.226 147.502 234.471 147.29V147.29ZM238.547 154.513C238.392 155.804 237.732 156.98 236.713 157.785C235.694 158.589 234.398 158.955 233.11 158.803L208.365 155.878C207.08 155.721 205.909 155.06 205.109 154.04C204.31 153.02 203.946 151.724 204.098 150.435C204.25 149.147 204.905 147.971 205.92 147.166C206.935 146.361 208.227 145.992 209.513 146.139L234.258 149.064C235.546 149.221 236.72 149.881 237.523 150.902C238.327 151.923 238.695 153.221 238.547 154.513L238.547 154.513Z" fill="#1B0551"/>
<path d="M293.562 135.813V166.874C292.99 167.218 292.395 167.522 291.782 167.784C288.588 169.213 285.048 169.676 281.595 169.115C278.143 168.554 274.929 166.994 272.349 164.627C272.1 164.404 271.851 164.163 271.611 163.913C271.37 163.673 271.139 163.414 270.917 163.155C268.231 160.063 266.678 156.145 266.516 152.048C266.354 147.951 267.592 143.922 270.025 140.626C272.458 137.33 275.941 134.966 279.897 133.923C283.854 132.881 288.046 133.224 291.782 134.894C292.391 135.168 292.985 135.475 293.562 135.813V135.813Z" fill="white"/>
<path d="M291.783 158.295C284.781 159.758 277.826 161.378 270.918 163.156C268.338 163.816 265.766 164.499 263.203 165.207C260.143 166.054 257.082 166.931 254.021 167.838C250.115 168.997 246.215 170.21 242.32 171.476C241.19 171.851 240.051 172.225 238.912 172.6C228.083 176.221 217.326 180.234 206.746 184.612C203.38 185.456 200.482 187.598 198.683 190.573C196.885 193.548 196.332 197.114 197.146 200.496L206.07 237.309C206.896 240.7 209.03 243.624 212.005 245.44C214.979 247.255 218.55 247.814 221.935 246.994L222.06 246.95C239.457 239.797 257.264 233.687 275.385 228.65C280.795 227.143 286.261 225.722 291.783 224.387C292.38 224.244 292.967 224.102 293.563 223.968V157.93C292.966 158.037 292.38 158.161 291.783 158.295Z" fill="white"/>
<path d="M291.783 158.295C284.781 159.758 277.826 161.378 270.918 163.156C268.338 163.816 265.766 164.499 263.203 165.207C260.143 166.054 257.082 166.931 254.021 167.838C250.115 168.997 246.215 170.21 242.32 171.476C241.19 171.851 240.051 172.225 238.912 172.6C228.083 176.221 217.326 180.234 206.746 184.612C203.38 185.456 200.482 187.598 198.683 190.573C196.885 193.548 196.332 197.114 197.146 200.496L206.07 237.309C206.896 240.7 209.03 243.624 212.005 245.44C214.979 247.255 218.55 247.814 221.935 246.994L222.06 246.95C239.457 239.797 257.264 233.687 275.385 228.65C280.795 227.143 286.261 225.722 291.783 224.387C292.38 224.244 292.967 224.102 293.563 223.968V222.131C292.967 222.273 292.38 222.416 291.783 222.559C291.338 222.666 290.885 222.773 290.44 222.88C285.208 224.155 280.032 225.505 274.913 226.929C274.779 226.964 274.637 227.009 274.503 227.045C256.474 232.07 238.757 238.16 221.446 245.282C218.526 245.968 215.455 245.471 212.899 243.9C210.343 242.328 208.509 239.809 207.796 236.89L198.881 200.076C198.173 197.145 198.654 194.052 200.219 191.476C201.784 188.899 204.304 187.05 207.227 186.334L207.36 186.289C218.883 181.509 230.61 177.175 242.427 173.322C243.566 172.948 244.705 172.582 245.843 172.216C248.638 171.334 251.434 170.474 254.234 169.639C257.188 168.756 260.139 167.906 263.087 167.089C263.283 167.035 263.479 166.982 263.675 166.928C266.558 166.134 269.45 165.367 272.35 164.627C278.783 162.986 285.261 161.479 291.783 160.106C292.37 159.981 292.967 159.856 293.563 159.74V157.93C292.966 158.037 292.38 158.161 291.783 158.295Z" fill="#1B0551"/>
<path d="M293.563 158.828V223.047C292.976 223.181 292.38 223.315 291.783 223.457C286.213 224.813 280.667 226.258 275.144 227.791C274.922 227.542 274.708 227.292 274.503 227.042C268.738 220.278 264.502 212.343 262.086 203.782C259.67 195.221 259.131 186.238 260.507 177.449C260.552 177.155 260.605 176.852 260.659 176.557C260.703 176.272 260.756 175.978 260.81 175.692C261.359 172.772 262.12 169.896 263.087 167.086C263.203 166.747 263.319 166.408 263.444 166.07C266.157 165.321 268.88 164.601 271.612 163.911C278.294 162.181 285.018 160.609 291.783 159.194C292.37 159.06 292.967 158.944 293.563 158.828Z" fill="#1B0551"/>
<path d="M252.214 217.004C251.547 215.361 250.257 214.051 248.627 213.36C246.997 212.67 245.161 212.656 243.52 213.32L220.43 222.702C218.793 223.371 217.487 224.664 216.8 226.297C216.113 227.93 216.1 229.769 216.765 231.411C217.43 233.054 218.718 234.364 220.346 235.055C221.974 235.747 223.809 235.762 225.449 235.098L248.539 225.717C250.176 225.046 251.482 223.753 252.171 222.12C252.86 220.488 252.875 218.648 252.214 217.004V217.004ZM247.872 224.058L224.781 233.449C223.578 233.936 222.231 233.925 221.036 233.418C219.841 232.911 218.896 231.949 218.408 230.744C217.92 229.539 217.929 228.189 218.433 226.99C218.938 225.792 219.896 224.843 221.098 224.352L244.188 214.97C245.39 214.481 246.737 214.49 247.933 214.996C249.129 215.502 250.075 216.463 250.563 217.668C251.052 218.873 251.043 220.223 250.538 221.422C250.033 222.62 249.074 223.568 247.872 224.058V224.058Z" fill="#1B0551"/>
<path d="M293.562 175.231V210.199C292.975 210.348 292.381 210.467 291.782 210.555C288.21 211.057 284.57 210.47 281.335 208.871C278.1 207.272 275.419 204.734 273.642 201.588C271.865 198.442 271.073 194.833 271.369 191.23C271.666 187.627 273.037 184.196 275.304 181.384C275.509 181.126 275.722 180.876 275.954 180.635C276.167 180.385 276.398 180.145 276.639 179.913C278.606 177.962 280.996 176.494 283.623 175.621C286.25 174.749 289.042 174.496 291.782 174.883C292.382 174.964 292.976 175.08 293.562 175.231V175.231Z" fill="white"/>
<path d="M291.782 114.39V203.402C292.379 203.205 292.975 203.018 293.562 202.84V115.202C292.966 114.925 292.379 114.658 291.782 114.39ZM291.782 114.39V203.402C292.379 203.205 292.975 203.018 293.562 202.84V115.202C292.966 114.925 292.379 114.658 291.782 114.39ZM291.782 114.39V203.402C292.379 203.205 292.975 203.018 293.562 202.84V115.202C292.966 114.925 292.379 114.658 291.782 114.39ZM291.782 120.892V223.458C292.379 223.316 292.975 223.182 293.562 223.048V121.4C292.966 121.222 292.37 121.052 291.782 120.892V120.892ZM291.782 120.892V223.458C292.379 223.316 292.975 223.182 293.562 223.048V121.4C292.966 121.222 292.37 121.052 291.782 120.892V120.892ZM291.782 120.892V223.458C292.379 223.316 292.975 223.182 293.562 223.048V121.4C292.966 121.222 292.37 121.052 291.782 120.892V120.892ZM291.782 120.892V223.458C292.379 223.316 292.975 223.182 293.562 223.048V121.4C292.966 121.222 292.37 121.052 291.782 120.892V120.892ZM291.782 120.892V224.386C292.379 224.243 292.966 224.1 293.562 223.967V121.4C292.966 121.222 292.37 121.052 291.782 120.892V120.892ZM679.951 36.5625H310.254C305.358 36.5707 300.664 38.5238 297.202 41.9941C293.739 45.4643 291.79 50.1687 291.782 55.0764V330.19C291.791 335.096 293.74 339.8 297.202 343.269C300.665 346.737 305.359 348.689 310.254 348.695H679.951C684.846 348.689 689.539 346.737 693 343.268C696.461 339.799 698.409 335.096 698.415 330.19V55.0764C698.41 50.169 696.464 45.4637 693.003 41.9928C689.541 38.5219 684.848 36.569 679.951 36.5625V36.5625ZM696.635 330.19C696.63 334.623 694.871 338.873 691.743 342.008C688.616 345.143 684.375 346.906 679.951 346.911H310.254C305.83 346.907 301.588 345.144 298.459 342.009C295.329 338.875 293.568 334.624 293.562 330.19V55.0764C293.568 50.6413 295.329 46.3897 298.458 43.2536C301.587 40.1175 305.829 38.3528 310.254 38.3461H679.951C684.376 38.3512 688.618 40.1158 691.746 43.2525C694.874 46.3892 696.632 50.6416 696.635 55.0764V330.19ZM291.782 120.892V222.558C292.379 222.415 292.966 222.272 293.562 222.129V121.4C292.966 121.222 292.37 121.052 291.782 120.892V120.892ZM291.782 120.892V223.458C292.379 223.316 292.975 223.182 293.562 223.048V121.4C292.966 121.222 292.37 121.052 291.782 120.892V120.892ZM291.782 120.892V223.458C292.379 223.316 292.975 223.182 293.562 223.048V121.4C292.966 121.222 292.37 121.052 291.782 120.892V120.892ZM291.782 120.892V223.458C292.379 223.316 292.975 223.182 293.562 223.048V121.4C292.966 121.222 292.37 121.052 291.782 120.892V120.892ZM291.782 114.39V203.402C292.379 203.205 292.975 203.018 293.562 202.84V115.202C292.966 114.925 292.379 114.658 291.782 114.39V114.39ZM291.782 114.39V203.402C292.379 203.205 292.975 203.018 293.562 202.84V115.202C292.966 114.925 292.379 114.658 291.782 114.39V114.39Z" fill="#2F2E41"/>
<path d="M212.526 208.571C212.177 207.755 211.654 207.027 210.994 206.436C210.334 205.845 209.552 205.407 208.705 205.152C207.857 204.896 206.964 204.83 206.089 204.958C205.213 205.086 204.376 205.405 203.636 205.892L186.578 192.756L185.772 203.931L202.095 214.692C202.994 215.883 204.297 216.702 205.759 216.994C207.22 217.285 208.737 217.03 210.023 216.275C211.309 215.521 212.274 214.319 212.735 212.9C213.196 211.48 213.122 209.939 212.526 208.571V208.571Z" fill="#FFB6B6"/>
<path d="M143.789 129.292L138.176 126.633C138.176 126.633 129.133 129.182 133.526 141.167L160.112 190.808L192.571 209.854L202.689 200.867L170.208 175.108L143.789 129.292Z" fill="#3F3D56"/>
</g>
<defs>
<clipPath id="clip0_36_14907">
<rect width="837" height="316" fill="white"/>
</clipPath>
</defs>
</svg>
