<svg width="661" height="363" viewBox="0 0 661 363" fill="none" xmlns="http://www.w3.org/2000/svg">
<g clip-path="url(#clip0_36_14721)" filter="url(#filter0_d_36_14721)">
<path d="M256.222 497.144C254.604 487.35 253.017 477.549 251.368 467.761C249.695 457.83 246.277 448.737 238.542 442.219C236.476 440.478 234.333 438.852 232.181 437.231C231.424 436.662 230.668 436.091 229.921 435.509C229.876 435.474 229.848 435.452 229.809 435.422C229.726 435.351 229.628 435.267 229.495 435.155C226.271 432.429 223.156 429.582 220.189 426.556C217.554 423.868 215.034 421.065 212.629 418.148C212.029 417.42 211.435 416.685 210.85 415.943C210.749 415.816 210.207 415.115 209.849 414.658C209.517 414.201 208.91 413.375 208.808 413.231C208.124 412.264 207.452 411.289 206.792 410.305C202.299 403.579 198.409 396.472 195.166 389.063C194.845 388.329 194.531 387.59 194.224 386.846C194.142 386.619 194.036 386.328 193.894 385.94C193.241 384.145 192.589 382.352 191.991 380.535C190.722 376.676 189.63 372.761 188.717 368.788C188.265 366.827 187.859 364.855 187.497 362.874C187.311 361.855 187.137 360.834 186.974 359.81C186.948 359.64 186.789 358.537 186.696 357.913C186.627 357.286 186.499 356.176 186.482 356.005C186.378 354.973 186.287 353.941 186.207 352.908C186.026 350.582 185.904 348.253 185.841 345.92C185.732 341.773 185.806 337.627 186.064 333.481C186.21 331.152 186.418 328.828 186.675 326.509C186.69 326.367 186.702 326.253 186.714 326.151C186.729 326.048 186.747 325.93 186.769 325.784C186.959 324.502 187.158 323.222 187.382 321.946C188.228 317.102 189.328 312.306 190.678 307.577C191.318 305.341 192.012 303.123 192.761 300.922C193.096 299.946 193.44 298.973 193.796 298.004C193.772 298.066 194.838 295.347 194.852 295.256C199.079 285.277 205.994 276.18 206.003 264.845C206.01 257.17 199.511 249.818 191.897 250.172C188.101 250.315 184.509 251.925 181.878 254.662C179.246 257.399 177.781 261.049 177.791 264.845C177.791 265.017 177.79 265.164 177.79 265.307C177.719 265.546 177.659 265.745 177.606 265.921C176.782 267.711 175.772 269.412 174.867 271.157C172.389 275.934 170.274 280.868 168.265 285.874C164.976 294.027 162.458 302.469 160.745 311.09C157.022 329.98 156.733 349.386 159.892 368.379C165.361 401.685 183.398 433.567 208.472 454.997C210.648 456.857 212.877 458.654 215.128 460.415C216.059 461.143 216.998 461.859 217.941 462.569C218.387 462.905 220.235 464.361 219.422 463.656C221.17 465.146 221.906 465.896 222.355 466.993C222.42 467.247 222.508 467.59 222.628 468.06C222.945 469.298 223.245 470.533 223.495 471.788C225.677 482.755 227.194 493.907 229.018 504.945C230.271 512.529 239.616 517.466 246.37 515.193C254.23 512.547 257.565 505.271 256.222 497.144Z" fill="#E6E6E6"/>
<path d="M377.428 525.587C371.504 525.602 365.816 523.269 361.611 519.1C357.407 514.931 355.029 509.265 355 503.346V487.27C338.153 489.155 280.464 488.718 263.928 486.064V502.703C263.884 508.617 261.501 514.274 257.3 518.44C253.098 522.606 247.419 524.944 241.499 524.944C235.58 524.944 229.9 522.606 225.699 518.44C221.497 514.274 219.115 508.617 219.07 502.703V470.033C196.673 457.602 178.002 439.425 164.984 417.378C151.965 395.331 145.072 370.213 145.014 344.615C145.014 300.724 164.923 259.78 199.638 232.282C222.209 214.342 249.633 203.553 278.387 201.301C282.29 200.995 286.217 200.84 290.059 200.84C303.594 200.84 364.661 202.929 379.983 207.333L414.92 172.698C415.434 172.182 416.09 171.83 416.804 171.688C417.519 171.546 418.259 171.619 418.932 171.899C419.609 172.168 420.189 172.636 420.596 173.241C421.003 173.845 421.217 174.559 421.21 175.287V180.794L428.013 174.063C428.526 173.546 429.181 173.194 429.895 173.052C430.609 172.909 431.349 172.983 432.021 173.263C432.699 173.532 433.28 174 433.687 174.605C434.094 175.21 434.309 175.923 434.302 176.652V238.19C451.833 253.98 465.195 273.847 473.203 296.029C481.211 318.212 483.619 342.026 480.212 365.36C476.805 388.695 467.69 410.829 453.673 429.802C439.657 448.776 421.172 464.001 399.857 474.13V503.347C399.828 509.265 397.45 514.931 393.246 519.1C389.041 523.269 383.353 525.602 377.428 525.587V525.587ZM356.763 485.273V503.346C356.808 508.793 359.004 514.001 362.875 517.837C366.746 521.673 371.977 523.825 377.428 523.825C382.88 523.825 388.111 521.673 391.982 517.837C395.852 514.001 398.049 508.793 398.094 503.346V473.018L398.597 472.779C422.514 461.441 442.817 443.702 457.253 421.532C475.648 393.241 483.298 359.306 478.818 325.869C474.339 292.431 458.026 261.701 432.832 239.239L432.539 238.976V176.652C432.545 176.274 432.435 175.902 432.224 175.588C432.012 175.274 431.71 175.032 431.356 174.895C431.005 174.745 430.617 174.704 430.242 174.778C429.867 174.853 429.524 175.039 429.257 175.311L419.447 185.018V175.287C419.453 174.909 419.343 174.537 419.132 174.223C418.92 173.909 418.617 173.667 418.264 173.53C417.912 173.38 417.523 173.34 417.147 173.415C416.772 173.489 416.428 173.676 416.161 173.949L380.476 209.326L379.969 209.167C365.725 204.713 303.697 202.602 290.059 202.602C286.263 202.602 282.382 202.755 278.526 203.057C250.121 205.282 223.03 215.94 200.734 233.662C166.443 260.824 146.777 301.265 146.777 344.615C146.835 369.986 153.692 394.878 166.635 416.707C179.579 438.535 198.136 456.503 220.379 468.744L220.834 468.995V502.704C220.879 508.149 223.076 513.357 226.947 517.192C230.818 521.027 236.048 523.178 241.499 523.178C246.95 523.178 252.181 521.027 256.051 517.192C259.922 513.357 262.119 508.149 262.165 502.704V483.955L263.209 484.151C278.07 486.944 340.644 487.385 355.767 485.403L356.763 485.273Z" fill="white"/>
<path d="M257.907 104.922L160.275 134.236C157.17 135.172 154.563 137.301 153.028 140.156C151.493 143.011 151.156 146.358 152.089 149.461C153.023 152.565 155.151 155.171 158.007 156.708C160.862 158.244 164.212 158.586 167.319 157.656L252.758 131.998L254.548 131.461C254.91 122.246 257.412 113.242 261.856 105.16C261.298 104.909 260.702 104.754 260.093 104.702C259.357 104.631 258.614 104.706 257.907 104.922Z" fill="#34BC3D"/>
<path d="M165.631 163.905C164.335 163.902 163.073 163.492 162.023 162.733C160.972 161.975 160.188 160.905 159.779 159.676L153.674 141.271C153.419 140.502 153.318 139.691 153.377 138.883C153.436 138.076 153.653 137.288 154.017 136.564C154.381 135.84 154.883 135.196 155.497 134.666C156.11 134.137 156.822 133.733 157.591 133.479L237.053 107.169C237.822 106.914 238.634 106.813 239.443 106.872C240.251 106.93 241.04 107.148 241.764 107.511C242.488 107.874 243.134 108.377 243.664 108.989C244.194 109.602 244.598 110.313 244.853 111.081L250.958 129.487C251.466 131 251.364 132.652 250.674 134.092C249.984 135.533 248.76 136.648 247.261 137.202C247.188 137.229 247.114 137.255 247.039 137.28L167.578 163.589C166.95 163.798 166.293 163.905 165.631 163.905Z" fill="#2F2E41"/>
<path d="M314.445 72.2344C298.408 72.2406 283.002 78.4813 271.488 89.6356C259.975 100.79 253.257 115.982 252.758 131.998C252.74 132.623 252.731 133.257 252.731 133.891C252.731 146.086 256.351 158.007 263.132 168.146C269.913 178.286 279.552 186.188 290.828 190.855C302.105 195.522 314.514 196.743 326.485 194.364C338.457 191.985 349.453 186.112 358.084 177.489C366.715 168.867 372.592 157.88 374.974 145.92C377.355 133.96 376.133 121.563 371.462 110.296C366.791 99.0299 358.881 89.4004 348.732 82.6255C338.583 75.8505 326.651 72.2344 314.445 72.2344V72.2344ZM314.445 193.787C298.551 193.77 283.311 187.454 272.072 176.225C260.833 164.996 254.511 149.771 254.495 133.891C254.495 133.072 254.512 132.262 254.548 131.46C255.025 119.728 258.944 108.394 265.817 98.8688C272.69 89.3435 282.214 82.0468 293.204 77.8859C304.195 73.725 316.167 72.8835 327.632 75.4661C339.098 78.0487 349.55 83.9415 357.69 92.4116C365.83 100.882 371.299 111.556 373.416 123.106C375.533 134.656 374.204 146.573 369.596 157.375C364.988 168.178 357.304 177.388 347.498 183.862C337.693 190.336 326.199 193.787 314.445 193.787V193.787Z" fill="white"/>
<path d="M366.462 133.89C366.462 147.672 360.982 160.891 351.227 170.637C341.472 180.383 328.241 185.858 314.446 185.858C300.65 185.858 287.42 180.383 277.665 170.637C267.91 160.891 262.43 147.672 262.43 133.89C262.43 132.243 262.509 130.622 262.659 129.019C263.912 115.717 270.245 103.409 280.343 94.6491C290.441 85.8897 303.528 81.3523 316.886 81.9792C330.244 82.606 342.848 88.3488 352.079 98.0153C361.311 107.682 366.462 120.529 366.462 133.89V133.89Z" fill="#E6E6E6"/>
<path d="M329.935 137.345C328.675 135.688 327.016 134.377 325.113 133.531C322.766 132.542 320.342 131.747 317.866 131.152V117.007C321.673 117.58 325.243 119.206 328.172 121.701L331.046 115.58C329.393 114.108 327.496 112.937 325.439 112.118C323.159 111.196 320.767 110.583 318.324 110.295V103.125H311.668V110.365C309.098 110.654 306.619 111.485 304.395 112.805C302.386 113.993 300.695 115.649 299.466 117.632C298.294 119.567 297.686 121.791 297.712 124.053C297.597 126.504 298.308 128.923 299.731 130.923C301.04 132.655 302.77 134.025 304.756 134.905C307.14 135.922 309.606 136.738 312.127 137.345V150.9C307.635 150.562 303.355 148.856 299.863 146.012L296.989 152.142C298.941 153.755 301.161 155.013 303.549 155.859C306.164 156.794 308.897 157.364 311.668 157.55V164.659H318.324V157.418C322.022 157.015 325.489 155.426 328.207 152.891C329.405 151.744 330.351 150.361 330.985 148.829C331.619 147.298 331.928 145.652 331.893 143.995C332.003 141.622 331.314 139.28 329.935 137.345V137.345ZM312.127 129.655C310.505 129.164 308.998 128.355 307.692 127.277C307.175 126.817 306.766 126.248 306.494 125.612C306.223 124.975 306.096 124.286 306.123 123.595C306.075 122.026 306.652 120.503 307.727 119.358C308.92 118.158 310.458 117.36 312.127 117.077V129.655ZM322.045 148.399C320.92 149.551 319.456 150.314 317.866 150.574V138.912C319.386 139.32 320.807 140.03 322.045 141C322.514 141.4 322.887 141.901 323.136 142.466C323.385 143.03 323.503 143.643 323.482 144.259C323.543 145.771 323.03 147.25 322.045 148.399V148.399Z" fill="#34BC3D"/>
<path d="M168.465 238.501C167.102 238.499 165.778 238.048 164.698 237.217C163.618 236.386 162.843 235.223 162.492 233.907L159.168 221.338C158.752 219.758 158.98 218.078 159.802 216.666C160.625 215.254 161.974 214.225 163.554 213.806L268.416 186.122C269.998 185.71 271.68 185.94 273.092 186.763C274.505 187.586 275.534 188.934 275.954 190.513L278.77 201.162L278.243 201.203C251.349 203.292 225.617 213.034 204.091 229.275L203.938 229.349L170.031 238.298C169.52 238.433 168.993 238.501 168.465 238.501V238.501Z" fill="#2F2E41"/>
<path d="M151.098 300.584C138.797 298.768 127.033 294.324 116.607 287.555C111.442 284.203 106.66 280.296 102.347 275.903C98.091 271.566 94.0191 266.636 91.9109 260.86C89.8825 255.515 89.987 249.597 92.2029 244.327C94.3886 239.09 98.5637 234.933 103.813 232.766C109.093 230.662 115.473 230.437 120.613 232.741C123.062 233.814 125.181 235.518 126.753 237.679C127.483 238.675 128.024 239.797 128.349 240.989C128.65 242.069 128.677 243.207 128.428 244.3C128.127 245.392 127.595 246.406 126.87 247.275C126.144 248.145 125.24 248.849 124.219 249.341C121.973 250.492 119.539 251.234 117.032 251.531C114.511 251.875 110.889 252.187 108.861 250.165C108.444 249.765 108.116 249.281 107.898 248.746C107.746 248.336 107.694 247.896 107.746 247.462C107.717 247.653 107.868 247.046 107.86 247.07C107.828 247.16 107.689 247.379 107.886 247.042C107.948 246.932 108.017 246.825 108.092 246.723C108.025 246.809 107.878 246.954 108.14 246.706C108.358 246.468 108.637 246.296 108.946 246.209C109.068 246.173 109.192 246.145 109.315 246.112C109.626 246.027 109.005 246.116 109.323 246.106C109.446 246.102 109.57 246.105 109.692 246.1C110.004 246.086 109.384 246.015 109.683 246.09C109.8 246.119 109.915 246.147 110.029 246.183C110.278 246.262 109.853 246.001 110.021 246.196C110.219 246.425 109.814 245.974 110.039 246.195C110.15 246.305 110.256 246.421 110.354 246.542C110.743 246.926 111.268 247.142 111.815 247.142C112.362 247.142 112.887 246.926 113.277 246.542C113.653 246.149 113.862 245.626 113.862 245.082C113.862 244.539 113.653 244.016 113.277 243.622C111.239 241.099 107.213 241.722 105.152 243.855C102.523 246.576 103.564 250.887 106.121 253.261C109.016 255.948 113.117 256.135 116.841 255.684C119.988 255.383 123.055 254.517 125.894 253.128C128.715 251.743 130.922 249.361 132.087 246.444C132.613 244.887 132.801 243.237 132.641 241.601C132.48 239.966 131.974 238.384 131.155 236.959C127.867 230.783 121.059 227.617 114.33 227.068C110.865 226.797 107.381 227.215 104.08 228.298C100.778 229.381 97.7236 231.108 95.094 233.378C90.0255 237.936 86.9045 244.267 86.3763 251.06C85.7889 258.103 88.524 264.943 92.5117 270.627C96.6864 276.402 101.668 281.549 107.305 285.912C118.325 294.701 131.251 300.792 145.049 303.696C146.69 304.035 148.34 304.325 149.999 304.566C150.527 304.694 151.084 304.616 151.556 304.348C152.028 304.08 152.381 303.642 152.541 303.124C152.683 302.596 152.611 302.033 152.341 301.558C152.071 301.083 151.624 300.733 151.098 300.584L151.098 300.584Z" fill="white"/>
<path d="M348.041 210.849C330.018 210.595 312.053 211.052 294.144 212.22C288.023 212.62 282.727 214.781 282.727 218.414C282.727 221.452 287.981 225.01 294.144 224.608C312.044 223.44 330.009 222.983 348.041 223.237C362.741 223.444 362.732 211.057 348.041 210.849Z" fill="#CCCCCC"/>
<path d="M321.403 222.625C319.456 222.625 273.702 222.552 273.702 216.238C273.702 209.924 319.456 209.852 321.403 209.852C323.351 209.852 369.104 209.924 369.104 216.238C369.104 222.552 323.351 222.625 321.403 222.625ZM275.491 216.238C276.743 218.152 293.561 220.863 321.403 220.863C349.245 220.863 366.063 218.152 367.315 216.238C366.063 214.324 349.245 211.613 321.403 211.613C293.561 211.613 276.743 214.324 275.491 216.238V216.238Z" fill="white"/>
<path d="M466.567 388.615C476.695 388.334 489.301 387.983 499.012 380.895C501.904 378.698 504.279 375.896 505.973 372.685C507.667 369.474 508.637 365.932 508.816 362.307C509.014 356.71 506.99 351.824 503.116 348.554C498.044 344.272 490.638 343.268 482.656 345.611L490.926 285.233L484.855 284.402L475.133 355.384L480.203 353.06C486.08 350.367 494.148 348.997 499.161 353.229C500.392 354.336 501.351 355.711 501.964 357.248C502.576 358.785 502.826 360.443 502.693 362.092C502.544 364.79 501.816 367.424 500.557 369.816C499.298 372.207 497.538 374.3 495.397 375.951C487.84 381.466 477.792 382.178 466.396 382.496L466.567 388.615Z" fill="white"/>
<path d="M449.782 290.441H416.78V296.563H449.782V290.441Z" fill="white"/>
<path d="M183.398 266.655C181.929 266.65 180.51 266.123 179.395 265.168C178.279 264.213 177.541 262.893 177.311 261.443L175.297 248.599C175.046 246.984 175.446 245.335 176.41 244.014C177.374 242.693 178.823 241.808 180.439 241.553L287.584 224.78C289.201 224.529 290.852 224.929 292.174 225.892C293.496 226.855 294.382 228.303 294.637 229.917L296.651 242.761C296.903 244.377 296.503 246.026 295.539 247.347C294.575 248.668 293.126 249.553 291.509 249.807L184.364 266.58C184.044 266.63 183.722 266.655 183.398 266.655Z" fill="#2F2E41"/>
<path d="M139.056 116.14C163.888 116.14 184.019 96.0278 184.019 71.2184C184.019 46.4089 163.888 26.2969 139.056 26.2969C114.223 26.2969 94.0928 46.4089 94.0928 71.2184C94.0928 96.0278 114.223 116.14 139.056 116.14Z" fill="#34BC3D"/>
<path d="M164.513 82.8403C165.95 82.3381 167.263 81.5344 168.363 80.4831C169.091 79.7336 169.646 78.8341 169.99 77.8477C170.333 76.8613 170.457 75.8118 170.351 74.7728C170.29 74.0322 170.058 73.3158 169.674 72.6795C169.29 72.0433 168.764 71.5044 168.137 71.105C166.509 70.1052 164.359 70.143 162.188 71.1484L161.938 53.6133L160.175 53.6383L160.469 74.2527L161.811 73.3733C163.368 72.3552 165.604 71.6169 167.213 72.6056C167.611 72.8674 167.943 73.2173 168.183 73.6281C168.424 74.039 168.566 74.4998 168.599 74.9746C168.674 75.7487 168.58 76.5296 168.325 77.2643C168.07 77.999 167.66 78.6702 167.122 79.2321C165.21 81.1269 162.381 81.7617 159.152 82.3424L159.465 84.076C161.181 83.8156 162.871 83.402 164.513 82.8403V82.8403Z" fill="#2F2E41"/>
<path d="M180.094 52.384L170.704 53.8047L170.968 55.5462L180.358 54.1256L180.094 52.384Z" fill="#2F2E41"/>
<path d="M150.456 56.8684L141.066 58.2891L141.33 60.0306L150.72 58.6099L150.456 56.8684Z" fill="#2F2E41"/>
<path d="M168.77 265.869C167.152 265.866 165.575 265.37 164.246 264.449C162.918 263.528 161.902 262.224 161.333 260.712L130.333 177.767C126.544 167.594 126.948 156.335 131.458 146.46C135.967 136.585 144.214 128.9 154.387 125.092L179.594 115.688C180.569 115.322 181.607 115.152 182.647 115.188C183.688 115.224 184.711 115.466 185.658 115.899C186.603 116.32 187.454 116.926 188.162 117.68C188.869 118.434 189.42 119.321 189.78 120.29L247.206 228.616C247.579 229.593 247.755 230.634 247.724 231.679C247.692 232.724 247.454 233.752 247.024 234.705C246.593 235.657 245.978 236.516 245.214 237.23C244.45 237.944 243.552 238.501 242.572 238.867L171.542 265.365C170.656 265.698 169.717 265.868 168.77 265.869Z" fill="#2F2E41"/>
<path d="M171.946 118.544L228.925 194.668L190.37 119.343C190.052 118.464 189.563 117.656 188.932 116.966C188.301 116.276 187.54 115.716 186.693 115.32C185.846 114.924 184.929 114.698 183.994 114.656C183.059 114.614 182.126 114.756 181.246 115.074L171.946 118.544Z" fill="#E6E6E6"/>
<path d="M262.165 176.355L160.429 169.808C158.826 169.705 157.258 169.287 155.816 168.579C154.374 167.87 153.086 166.885 152.025 165.679C150.964 164.473 150.152 163.07 149.633 161.551C149.115 160.031 148.902 158.424 149.005 156.822C149.108 155.22 149.526 153.654 150.235 152.213C150.944 150.773 151.931 149.486 153.138 148.426C154.344 147.366 155.749 146.554 157.27 146.036C158.791 145.518 160.399 145.305 162.003 145.408L263.738 151.955C264.489 152.003 265.223 152.199 265.899 152.53C266.574 152.862 267.177 153.324 267.674 153.888C268.171 154.453 268.552 155.11 268.794 155.822C269.037 156.533 269.137 157.286 269.089 158.036L268.252 171.01C268.155 172.525 267.458 173.939 266.317 174.942C265.175 175.944 263.682 176.453 262.165 176.355Z" fill="#34BC3D"/>
<path d="M234.98 180.55C234.846 180.55 234.711 180.546 234.576 180.537H234.576L151.037 175.161C150.228 175.109 149.437 174.899 148.71 174.541C147.983 174.184 147.333 173.687 146.798 173.079C146.263 172.471 145.853 171.764 145.591 170.997C145.33 170.231 145.222 169.42 145.275 168.612L146.703 146.453C146.755 145.645 146.966 144.855 147.324 144.128C147.681 143.402 148.179 142.752 148.788 142.218C149.396 141.683 150.105 141.274 150.872 141.013C151.639 140.752 152.45 140.644 153.259 140.696L236.798 146.072C238.431 146.179 239.954 146.928 241.035 148.156C242.115 149.384 242.663 150.99 242.56 152.621L241.132 174.781C241.053 175.968 240.633 177.108 239.922 178.063C239.211 179.017 238.239 179.747 237.124 180.164C236.438 180.42 235.712 180.551 234.98 180.55V180.55Z" fill="#2F2E41"/>
<path d="M138.541 41.3458C144.456 36.2632 152.579 40.8099 159.362 40.014C165.852 39.2525 170.976 33.4365 172.285 27.2577C173.813 20.0492 170.068 12.8272 164.548 8.3328C158.502 3.4103 150.484 1.99717 142.886 2.90787C134.177 3.95163 126.213 8.0072 119.067 12.9126C112.169 17.5009 105.825 22.8711 100.163 28.9163C95.0929 34.5109 90.797 41.1796 89.4252 48.7079C88.1786 55.5497 89.1305 63.1313 93.1787 68.9271C95.3254 71.8978 98.2022 74.2656 101.531 75.8021C105.003 77.5051 108.706 78.7226 112.069 80.6481C117.154 83.5595 122.096 89.5962 120.503 95.8782C120.162 97.2505 119.488 98.5179 118.541 99.5688C117.403 100.831 115.35 99.1632 116.491 97.8978C118.495 95.6755 118.416 92.7117 117.348 90.0584C116.078 87.0686 113.83 84.5982 110.971 83.0522C107.451 81.0413 103.564 79.8001 99.9559 77.9685C96.5023 76.2953 93.5045 73.8133 91.2177 70.7336C86.8993 64.7379 85.6075 56.9349 86.5869 49.7165C87.6467 41.9051 91.6639 34.8068 96.6997 28.8585C102.18 22.385 108.912 16.9054 115.789 11.9826C123.168 6.70054 131.321 2.23488 140.343 0.619723C148.163 -0.780366 156.639 0.081617 163.478 4.33934C169.861 8.31365 174.756 15.1502 175.243 22.7895C175.417 26.2653 174.662 29.7249 173.054 32.8122C171.446 35.8995 169.044 38.503 166.095 40.3547C163.068 42.1641 159.55 42.9785 156.035 42.683C152.278 42.4427 148.517 41.2933 144.736 41.6124C143.025 41.7162 141.395 42.3743 140.092 43.4872C138.799 44.5977 137.259 42.4472 138.541 41.3459V41.3458Z" fill="#2F2E41"/>
</g>
<defs>
<filter id="filter0_d_36_14721" x="0" y="0" width="661" height="363" filterUnits="userSpaceOnUse" color-interpolation-filters="sRGB">
<feFlood flood-opacity="0" result="BackgroundImageFix"/>
<feColorMatrix in="SourceAlpha" type="matrix" values="0 0 0 0 0 0 0 0 0 0 0 0 0 0 0 0 0 0 127 0" result="hardAlpha"/>
<feOffset dy="4"/>
<feGaussianBlur stdDeviation="2"/>
<feComposite in2="hardAlpha" operator="out"/>
<feColorMatrix type="matrix" values="0 0 0 0 0 0 0 0 0 0 0 0 0 0 0 0 0 0 0.25 0"/>
<feBlend mode="normal" in2="BackgroundImageFix" result="effect1_dropShadow_36_14721"/>
<feBlend mode="normal" in="SourceGraphic" in2="effect1_dropShadow_36_14721" result="shape"/>
</filter>
<clipPath id="clip0_36_14721">
<rect width="653" height="355" fill="white" transform="translate(4)"/>
</clipPath>
</defs>
</svg>
