<svg width="610" height="318" viewBox="0 0 610 318" fill="none" xmlns="http://www.w3.org/2000/svg">
<g clip-path="url(#clip0_36_14868)">
<path d="M160.852 0.253906H609.809V287.572H160.852V0.253906Z" fill="#E6E6E6"/>
<path d="M173.69 36.293H596.971V145.821H173.69V36.293Z" fill="white"/>
<path d="M402.169 52.1094H491.684V57.244H402.169V52.1094Z" fill="#E6E6E6"/>
<path d="M353.454 70.8438H491.684V75.9784H353.454V70.8438Z" fill="#1B0551"/>
<path d="M379.029 88.4844H491.684V93.619H379.029V88.4844Z" fill="#E6E6E6"/>
<path d="M425.918 106.07H491.684V111.205H425.918V106.07Z" fill="#E6E6E6"/>
<path d="M392.426 123.648H491.684V128.783H392.426V123.648Z" fill="#E6E6E6"/>
<path d="M521.521 50.2891H532.482V61.2419H521.521V50.2891Z" fill="#E6E6E6"/>
<path d="M521.521 67.9336H532.482V78.8864H521.521V67.9336Z" fill="#1B0551"/>
<path d="M521.521 85.582H532.482V96.5349H521.521V85.582Z" fill="#E6E6E6"/>
<path d="M521.521 103.223H532.482V114.175H521.521V103.223Z" fill="#E6E6E6"/>
<path d="M521.521 120.873H532.482V131.826H521.521V120.873Z" fill="#E6E6E6"/>
<path d="M232.883 75.2344H269.42V111.744H232.883V75.2344Z" fill="#E6E6E6"/>
<path d="M173.69 161.031H596.971V270.559H173.69V161.031Z" fill="white"/>
<path d="M502.645 170.768H513.605V181.72H502.645V170.768Z" fill="#E6E6E6"/>
<path d="M521.521 170.768H532.482V181.72H521.521V170.768Z" fill="#1B0551"/>
<path d="M346.638 194.719C349.979 189.067 354.614 184.288 360.163 180.776C365.712 177.263 372.017 175.116 378.558 174.513C385.099 173.909 391.69 174.865 397.789 177.302C403.888 179.74 409.321 183.589 413.641 188.534L416.312 186.201C411.624 180.833 405.727 176.654 399.107 174.008C392.486 171.361 385.332 170.323 378.232 170.978C371.132 171.633 364.289 173.963 358.265 177.777C352.242 181.59 347.211 186.778 343.586 192.913L346.638 194.719Z" fill="#E6E6E6"/>
<path d="M344.966 240.894L347.91 238.916C343.55 232.418 341.117 224.821 340.892 217C340.667 209.18 342.659 201.455 346.638 194.718L343.585 192.912C339.265 200.226 337.102 208.612 337.346 217.102C337.59 225.592 340.232 233.84 344.966 240.894V240.894Z" fill="#1B0551"/>
<path d="M415.942 245.831C423.275 237.649 427.36 227.069 427.428 216.085C427.496 205.102 423.542 194.472 416.312 186.199L413.641 188.532C420.301 196.153 423.943 205.945 423.881 216.063C423.818 226.182 420.055 235.928 413.3 243.466L415.942 245.831Z" fill="#1B0551"/>
<path d="M382.378 260.826C388.712 260.821 394.975 259.483 400.758 256.9C406.541 254.317 411.714 250.546 415.942 245.832L413.3 243.467C409.083 248.176 403.844 251.859 397.984 254.236C392.125 256.612 385.799 257.62 379.491 257.181C373.182 256.741 367.057 254.868 361.584 251.702C356.111 248.537 351.434 244.163 347.91 238.916L344.966 240.894C349.084 247.031 354.652 252.06 361.177 255.536C367.702 259.012 374.984 260.829 382.378 260.826V260.826Z" fill="#1B0551"/>
<path d="M232.883 194.5H269.42V231.009H232.883V194.5Z" fill="#E6E6E6"/>
<path d="M497.468 218.229H534.005V254.738H497.468V218.229Z" fill="#E6E6E6"/>
<path d="M161.044 0H610V19.0592H161.044V0Z" fill="#919191"/>
<path d="M595.826 13.2759C593.874 13.2759 592.291 11.6943 592.291 9.74341C592.291 7.79248 593.874 6.21094 595.826 6.21094C597.779 6.21094 599.361 7.79248 599.361 9.74341C599.361 11.6943 597.779 13.2759 595.826 13.2759Z" fill="white"/>
<path d="M582.408 13.2759C580.456 13.2759 578.873 11.6943 578.873 9.74341C578.873 7.79248 580.456 6.21094 582.408 6.21094C584.361 6.21094 585.943 7.79248 585.943 9.74341C585.943 11.6943 584.361 13.2759 582.408 13.2759Z" fill="white"/>
<path d="M568.99 13.2759C567.038 13.2759 565.455 11.6943 565.455 9.74341C565.455 7.79248 567.038 6.21094 568.99 6.21094C570.943 6.21094 572.525 7.79248 572.525 9.74341C572.525 11.6943 570.943 13.2759 568.99 13.2759Z" fill="white"/>
<path d="M74.2738 274.676L76.8498 326.158L70.4094 382.145L89.73 384.719L101.966 313.931L105.83 265.666L74.2738 274.676Z" fill="#2F2E41"/>
<path d="M44.0054 256.012C44.0054 256.012 36.2773 306.85 52.3775 323.582C68.4777 340.314 90.3739 369.916 90.3739 369.916L105.83 350.61L66.5457 308.781L74.2738 280.466L105.83 265.665L100.678 230.27L54.3096 229.627L44.0054 256.012Z" fill="#2F2E41"/>
<path d="M79.4679 138.248C70.757 138.248 63.6955 131.192 63.6955 122.487C63.6955 113.783 70.757 106.727 79.4679 106.727C88.1787 106.727 95.2402 113.783 95.2402 122.487C95.2402 131.192 88.1787 138.248 79.4679 138.248Z" fill="#FFB8B8"/>
<path d="M66.3863 144.885L63.9704 148.542L57.53 166.561L62.6821 236.705L92.9507 237.349L96.8145 156.908L88.7201 146.798L66.3863 144.885Z" fill="#CCCCCC"/>
<path d="M109.051 158.839L114.203 158.195C114.203 158.195 115.491 158.839 116.135 163.344C116.779 167.848 124.507 207.747 124.507 207.747L114.203 256.655L102.611 241.21L109.695 214.182L102.611 187.154L109.051 158.839Z" fill="#2F2E41"/>
<path d="M43.3617 158.197H39.498L29.8377 210.323L38.8535 250.865L47.8699 236.064L45.2939 219.976L46.5816 205.818L51.0898 197.452L43.3617 158.197Z" fill="#2F2E41"/>
<path d="M70.1483 122.488L73.016 121.772C73.016 121.772 75.1667 109.593 80.1852 111.026C85.2038 112.459 98.1084 113.892 98.1084 108.16C98.1084 102.429 85.9206 97.4145 78.7514 98.1309C71.5822 98.8473 62.4259 101.224 60.1113 111.742C56.401 128.604 67.7667 132.863 67.7667 132.863L67.5776 132.249C67.0524 130.544 67.0148 128.727 67.4691 127.002C67.9234 125.277 68.8514 123.714 70.1483 122.488V122.488Z" fill="#2F2E41"/>
<path d="M113.559 158.195L92.9504 149.829L88.1204 146.29L73.6302 210.321L63.9701 181.362L66.8682 144.359L40.142 158.195L49.158 201.955L50.446 218.687L46.582 232.201C46.582 232.201 33.0579 241.854 37.5659 252.15C42.0739 262.447 47.226 263.09 47.226 263.09C47.226 263.09 69.1222 242.497 70.4102 237.349C71.6982 232.201 73.6302 223.192 73.6302 223.192C73.6302 223.192 84.5784 264.377 97.4584 263.734C110.339 263.09 110.339 249.576 110.339 249.576L107.119 235.419L101.966 220.617L104.542 196.163L113.559 158.195Z" fill="#2F2E41"/>
</g>
<defs>
<clipPath id="clip0_36_14868">
<rect width="610" height="318" fill="white" transform="matrix(-1 0 0 1 610 0)"/>
</clipPath>
</defs>
</svg>
