<svg width="1440" height="1027" viewBox="0 0 1440 1027" fill="none" xmlns="http://www.w3.org/2000/svg">
<g clip-path="url(#clip0_36_14720)">
<rect width="1440" height="1027" fill="url(#paint0_linear_36_14720)"/>
<path d="M1439.68 878.63C1438.21 940.45 1430.56 1001.8 1416.91 1061.25C1286.76 1071.18 1155.86 1051.48 1025.27 1045.49C890.868 1039.19 756.18 1047.38 621.839 1039.03C609.884 1038.28 596.321 1036.35 589.287 1024.29C582.252 1012.24 584.997 994.388 579.824 980.637C576.953 973.151 571.812 967.044 570.361 958.967C568.658 948.92 573.294 939.267 577.773 930.52C608.643 870.973 640.523 812.345 673.412 754.637C681.581 740.374 690.098 725.756 702.084 716.616C714.07 707.475 730.473 705.071 741.765 715.512C743.068 709.338 745.947 703.863 749.966 699.916C753.984 695.97 758.924 693.769 764.034 693.645C767.594 694.3 771.223 694.032 774.696 692.857C778.576 690.651 780.374 684.977 782.487 680.486C787.563 670.304 795.474 662.828 804.699 659.496C813.923 656.164 823.809 657.213 832.451 662.44C840.156 650.524 849.984 641.023 861.151 634.696C872.318 628.368 884.514 625.388 896.767 625.995C926.859 627.847 953.544 651.172 983.352 657.042C998.71 659.877 1014.38 658.533 1029.28 653.102C1037.61 650.187 1045.84 646.089 1054.51 645.222C1062.58 644.527 1070.64 646.743 1077.73 651.605C1080.7 654.257 1084.14 655.986 1087.76 656.648C1091.89 656.648 1095.49 653.142 1098.77 650.029C1114.24 635.716 1132.14 626.048 1151.08 621.778C1170.03 617.507 1189.5 618.748 1208 625.404C1213.93 627.532 1219.96 630.368 1226.08 629.699C1234.59 628.832 1241.85 621.621 1248.66 615.357C1286.13 581.315 1380.73 567.131 1426.5 574.499C1431.52 575.287 1436.25 576.233 1440.76 577.297C1470.53 674.261 1442.68 776.268 1439.68 878.63Z" fill="url(#paint1_linear_36_14720)"/>
<path d="M575.839 886.493C575.086 911.674 571.182 936.663 564.216 960.88C497.797 964.924 430.991 956.9 364.346 954.46C295.754 951.892 227.016 955.231 158.456 951.828C152.355 951.523 145.433 950.737 141.843 945.826C138.253 940.915 139.653 933.645 137.013 928.044C135.549 924.994 132.925 922.507 132.184 919.217C131.315 915.124 133.681 911.192 135.967 907.629C151.721 883.374 167.991 859.493 184.776 835.987C188.945 830.177 193.291 824.223 199.408 820.499C205.526 816.776 213.896 815.797 219.659 820.05C220.324 817.535 221.794 815.305 223.844 813.697C225.895 812.09 228.416 811.193 231.024 811.143C232.841 811.41 234.693 811.3 236.465 810.822C238.446 809.923 239.363 807.612 240.442 805.782C243.032 801.635 247.07 798.59 251.777 797.233C256.485 795.876 261.53 796.303 265.941 798.432C269.873 793.578 274.888 789.708 280.587 787.131C286.286 784.553 292.511 783.339 298.764 783.587C314.121 784.341 327.74 793.842 342.952 796.233C350.79 797.388 358.785 796.84 366.391 794.628C370.64 793.441 374.842 791.772 379.269 791.418C383.386 791.135 387.499 792.038 391.117 794.018C392.635 795.099 394.39 795.803 396.236 796.073C398.345 796.073 400.18 794.644 401.854 793.376C409.748 787.546 418.884 783.608 428.552 781.869C438.22 780.129 448.16 780.635 457.601 783.346C460.627 784.212 463.702 785.368 466.825 785.095C471.171 784.742 474.873 781.805 478.351 779.253C497.475 765.387 522.072 759.786 545.43 762.787C547.99 763.108 550.404 763.493 552.706 763.927C567.902 803.423 577.368 844.797 575.839 886.493Z" fill="url(#paint2_linear_36_14720)"/>
<path d="M509.209 923.218C510.183 955.828 515.239 988.189 524.261 1019.55C610.277 1024.79 696.793 1014.4 783.101 1011.24C871.932 1007.91 960.95 1012.23 1049.74 1007.83C1057.64 1007.43 1066.6 1006.41 1071.25 1000.05C1075.9 993.695 1074.09 984.28 1077.51 977.027C1079.4 973.078 1082.8 969.856 1083.76 965.596C1084.89 960.296 1081.82 955.204 1078.86 950.59C1058.46 919.179 1037.39 888.253 1015.65 857.813C1010.25 850.289 1004.63 842.578 996.703 837.757C988.781 832.935 977.94 831.667 970.477 837.175C969.616 833.918 967.713 831.029 965.057 828.948C962.401 826.866 959.137 825.705 955.759 825.64C953.406 825.985 951.008 825.844 948.712 825.224C946.148 824.06 944.96 821.067 943.563 818.698C940.209 813.327 934.98 809.384 928.883 807.626C922.786 805.869 916.253 806.422 910.541 809.179C905.449 802.894 898.953 797.882 891.573 794.544C884.192 791.206 876.131 789.635 868.033 789.955C848.145 790.931 830.508 803.235 810.807 806.332C800.657 807.827 790.303 807.118 780.454 804.254C774.95 802.716 769.509 800.554 763.776 800.097C758.443 799.73 753.117 800.899 748.432 803.464C746.465 804.863 744.193 805.775 741.803 806.124C739.072 806.124 736.695 804.274 734.527 802.633C724.304 795.082 712.472 789.983 699.952 787.73C687.431 785.477 674.558 786.132 662.333 789.643C658.413 790.765 654.432 792.262 650.387 791.908C644.758 791.451 639.963 787.648 635.46 784.343C610.694 766.386 578.839 759.133 548.59 763.019C545.275 763.435 542.148 763.934 539.167 764.495C519.487 815.643 507.228 869.223 509.209 923.218Z" fill="url(#paint3_linear_36_14720)"/>
<path d="M-331.791 888.841C-330.817 921.577 -325.761 954.062 -316.739 985.544C-230.723 990.802 -144.207 980.37 -57.8987 977.198C30.9318 973.86 119.95 978.2 208.739 973.777C216.64 973.38 225.604 972.358 230.253 965.974C234.902 959.589 233.088 950.138 236.507 942.857C238.404 938.893 241.803 935.659 242.762 931.382C243.887 926.061 240.823 920.95 237.862 916.318C217.46 884.786 196.39 853.741 174.653 823.183C169.254 815.63 163.625 807.889 155.703 803.049C147.781 798.209 136.94 796.936 129.477 802.465C128.616 799.195 126.713 796.296 124.057 794.206C121.401 792.117 118.137 790.951 114.759 790.886C112.406 791.232 110.008 791.09 107.712 790.468C105.148 789.3 103.96 786.296 102.563 783.917C99.2086 778.526 93.9795 774.567 87.8829 772.802C81.7863 771.038 75.253 771.594 69.541 774.361C64.4488 768.052 57.9532 763.021 50.5727 759.67C43.1923 756.319 35.1313 754.741 27.0333 755.063C7.14493 756.043 -10.4919 768.394 -30.1927 771.503C-40.3426 773.004 -50.6968 772.292 -60.5464 769.417C-66.0501 767.873 -71.4912 765.703 -77.2242 765.244C-82.5567 764.876 -87.8825 766.049 -92.5678 768.624C-94.5345 770.028 -96.807 770.944 -99.1973 771.295C-101.928 771.295 -104.305 769.438 -106.473 767.789C-116.696 760.21 -128.528 755.091 -141.048 752.829C-153.569 750.568 -166.442 751.225 -178.667 754.75C-182.587 755.876 -186.568 757.378 -190.613 757.024C-196.242 756.565 -201.037 752.747 -205.54 749.429C-230.306 731.403 -262.161 724.122 -292.41 728.023C-295.725 728.44 -298.852 728.941 -301.833 729.505C-321.513 780.85 -333.772 834.637 -331.791 888.841Z" fill="url(#paint4_linear_36_14720)"/>
</g>
<defs>
<linearGradient id="paint0_linear_36_14720" x1="720" y1="0" x2="720" y2="1027" gradientUnits="userSpaceOnUse">
<stop stop-color="#A6CFFF"/>
<stop offset="1" stop-color="white"/>
</linearGradient>
<linearGradient id="paint1_linear_36_14720" x1="1009.19" y1="845.809" x2="1042.11" y2="482.106" gradientUnits="userSpaceOnUse">
<stop offset="0.02" stop-color="white" stop-opacity="0"/>
<stop offset="0.49" stop-color="white" stop-opacity="0.68"/>
<stop offset="1" stop-color="white"/>
</linearGradient>
<linearGradient id="paint2_linear_36_14720" x1="356.136" y1="873.124" x2="366.873" y2="724.538" gradientUnits="userSpaceOnUse">
<stop offset="0.02" stop-color="white" stop-opacity="0"/>
<stop offset="0.49" stop-color="white" stop-opacity="0.68"/>
<stop offset="1" stop-color="white"/>
</linearGradient>
<linearGradient id="paint3_linear_36_14720" x1="793.733" y1="905.906" x2="779.83" y2="713.486" gradientUnits="userSpaceOnUse">
<stop offset="0.02" stop-color="white" stop-opacity="0"/>
<stop offset="0.49" stop-color="white" stop-opacity="0.68"/>
<stop offset="1" stop-color="white"/>
</linearGradient>
<linearGradient id="paint4_linear_36_14720" x1="-47.2666" y1="871.461" x2="-61.277" y2="678.307" gradientUnits="userSpaceOnUse">
<stop offset="0.02" stop-color="white" stop-opacity="0"/>
<stop offset="0.49" stop-color="white" stop-opacity="0.68"/>
<stop offset="1" stop-color="white"/>
</linearGradient>
<clipPath id="clip0_36_14720">
<rect width="1440" height="1027" fill="white"/>
</clipPath>
</defs>
</svg>
