<svg width="1440" height="451" viewBox="0 0 1440 451" fill="none" xmlns="http://www.w3.org/2000/svg">
<g clip-path="url(#clip0_36_14714)">
<g filter="url(#filter0_d_36_14714)">
<path d="M-42.7826 283.218C-41.7695 315.828 -36.5109 348.189 -27.1289 379.549C62.3279 384.787 152.305 374.395 242.065 371.236C334.449 367.911 427.028 372.234 519.368 367.828C527.585 367.433 536.908 366.414 541.743 360.055C546.578 353.695 544.692 344.28 548.248 337.027C550.221 333.078 553.755 329.856 554.752 325.596C555.923 320.296 552.736 315.204 549.657 310.59C528.438 279.179 506.526 248.253 483.919 217.813C478.304 210.289 472.45 202.578 464.211 197.757C455.972 192.935 444.698 191.667 436.936 197.175C436.041 193.918 434.062 191.029 431.3 188.948C428.537 186.866 425.142 185.705 421.629 185.64C419.183 185.985 416.688 185.844 414.301 185.224C411.634 184.06 410.398 181.067 408.946 178.698C405.457 173.327 400.019 169.384 393.678 167.626C387.338 165.869 380.543 166.422 374.603 169.179C369.307 162.894 362.551 157.882 354.876 154.544C347.2 151.206 338.817 149.635 330.395 149.955C309.711 150.931 291.368 163.235 270.88 166.332C260.324 167.827 249.555 167.118 239.312 164.254C233.588 162.716 227.929 160.554 221.967 160.097C216.421 159.73 210.882 160.899 206.009 163.464C203.964 164.863 201.601 165.775 199.115 166.124C196.275 166.124 193.803 164.274 191.548 162.633C180.916 155.082 168.611 149.983 155.59 147.73C142.569 145.477 129.181 146.132 116.466 149.643C112.39 150.765 108.249 152.262 104.043 151.908C98.1887 151.451 93.202 147.648 88.5189 144.343C62.7616 126.386 29.6327 119.133 -1.82677 123.019C-5.27408 123.435 -8.52631 123.934 -11.6267 124.495C-32.0938 175.643 -44.8424 229.223 -42.7826 283.218Z" fill="white"/>
</g>
<g filter="url(#filter1_d_36_14714)">
<path d="M-66.6493 327.218C-65.0145 359.828 -56.5286 392.189 -41.3887 423.549C102.969 428.787 248.166 418.395 393.013 415.236C542.094 411.911 691.49 416.234 840.501 411.828C853.761 411.433 868.805 410.414 876.607 404.055C884.41 397.695 881.366 388.28 887.104 381.027C890.287 377.078 895.99 373.856 897.6 369.596C899.489 364.296 894.346 359.204 889.378 354.59C855.137 323.179 819.776 292.253 783.296 261.813C774.235 254.289 764.788 246.578 751.493 241.757C738.198 236.935 720.004 235.667 707.479 241.175C706.034 237.918 702.841 235.029 698.383 232.948C693.925 230.866 688.447 229.705 682.778 229.64C678.83 229.985 674.804 229.844 670.952 229.224C666.649 228.06 664.655 225.067 662.31 222.698C656.68 217.327 647.905 213.384 637.673 211.626C627.441 209.869 616.477 210.422 606.89 213.179C598.344 206.894 587.443 201.882 575.057 198.544C562.671 195.206 549.142 193.635 535.551 193.955C502.174 194.931 472.574 207.235 439.511 210.332C422.477 211.827 405.1 211.118 388.57 208.254C379.333 206.716 370.202 204.554 360.58 204.097C351.631 203.73 342.693 204.899 334.83 207.464C331.529 208.863 327.715 209.775 323.704 210.124C319.12 210.124 315.132 208.274 311.493 206.633C294.336 199.082 274.48 193.983 253.467 191.73C232.454 189.477 210.85 190.132 190.332 193.643C183.754 194.765 177.072 196.262 170.284 195.908C160.838 195.451 152.791 191.648 145.234 188.343C103.669 170.386 50.2081 163.133 -0.558396 167.019C-6.12137 167.435 -11.3695 167.934 -16.3727 168.495C-49.4006 219.643 -69.9731 273.223 -66.6493 327.218Z" fill="white"/>
</g>
<g filter="url(#filter2_d_36_14714)">
<path d="M741.209 353.218C742.183 385.828 747.239 418.189 756.261 449.549C842.277 454.787 928.793 444.395 1015.1 441.236C1103.93 437.911 1192.95 442.234 1281.74 437.828C1289.64 437.433 1298.6 436.414 1303.25 430.055C1307.9 423.695 1306.09 414.28 1309.51 407.027C1311.4 403.078 1314.8 399.856 1315.76 395.596C1316.89 390.296 1313.82 385.204 1310.86 380.59C1290.46 349.179 1269.39 318.253 1247.65 287.813C1242.25 280.289 1236.63 272.578 1228.7 267.757C1220.78 262.935 1209.94 261.667 1202.48 267.175C1201.62 263.918 1199.71 261.029 1197.06 258.948C1194.4 256.866 1191.14 255.705 1187.76 255.64C1185.41 255.985 1183.01 255.844 1180.71 255.224C1178.15 254.06 1176.96 251.067 1175.56 248.698C1172.21 243.327 1166.98 239.384 1160.88 237.626C1154.79 235.869 1148.25 236.422 1142.54 239.179C1137.45 232.894 1130.95 227.882 1123.57 224.544C1116.19 221.206 1108.13 219.635 1100.03 219.955C1080.14 220.931 1062.51 233.235 1042.81 236.332C1032.66 237.827 1022.3 237.118 1012.45 234.254C1006.95 232.716 1001.51 230.554 995.776 230.097C990.443 229.73 985.117 230.899 980.432 233.464C978.465 234.863 976.193 235.775 973.803 236.124C971.072 236.124 968.695 234.274 966.527 232.633C956.304 225.082 944.472 219.983 931.952 217.73C919.431 215.477 906.558 216.132 894.333 219.643C890.413 220.765 886.432 222.262 882.387 221.908C876.758 221.451 871.963 217.648 867.46 214.343C842.694 196.386 810.839 189.133 780.59 193.019C777.275 193.435 774.148 193.934 771.167 194.495C751.487 245.643 739.228 299.223 741.209 353.218Z" fill="white"/>
</g>
<g filter="url(#filter3_d_36_14714)">
<path d="M1472.79 303.218C1471.82 335.828 1466.76 368.189 1457.74 399.549C1371.72 404.787 1285.21 394.395 1198.9 391.236C1110.07 387.911 1021.05 392.234 932.261 387.828C924.36 387.433 915.396 386.414 910.747 380.055C906.098 373.695 907.912 364.28 904.493 357.027C902.596 353.078 899.197 349.856 898.238 345.596C897.113 340.296 900.177 335.204 903.138 330.59C923.54 299.179 944.61 268.253 966.347 237.813C971.746 230.289 977.375 222.578 985.297 217.757C993.219 212.935 1004.06 211.667 1011.52 217.175C1012.38 213.918 1014.29 211.029 1016.94 208.948C1019.6 206.866 1022.86 205.705 1026.24 205.64C1028.59 205.985 1030.99 205.844 1033.29 205.224C1035.85 204.06 1037.04 201.067 1038.44 198.698C1041.79 193.327 1047.02 189.384 1053.12 187.626C1059.21 185.869 1065.75 186.422 1071.46 189.179C1076.55 182.894 1083.05 177.882 1090.43 174.544C1097.81 171.206 1105.87 169.635 1113.97 169.955C1133.86 170.931 1151.49 183.235 1171.19 186.332C1181.34 187.827 1191.7 187.118 1201.55 184.254C1207.05 182.716 1212.49 180.554 1218.22 180.097C1223.56 179.73 1228.88 180.899 1233.57 183.464C1235.53 184.863 1237.81 185.775 1240.2 186.124C1242.93 186.124 1245.3 184.274 1247.47 182.633C1257.7 175.082 1269.53 169.983 1282.05 167.73C1294.57 165.477 1307.44 166.132 1319.67 169.643C1323.59 170.765 1327.57 172.262 1331.61 171.908C1337.24 171.451 1342.04 167.648 1346.54 164.343C1371.31 146.386 1403.16 139.133 1433.41 143.019C1436.73 143.435 1439.85 143.934 1442.83 144.495C1462.51 195.643 1474.77 249.223 1472.79 303.218Z" fill="white"/>
</g>
<path d="M598.413 51.488C603.015 55.2471 602.585 61.9793 597.518 65.2461L610 108.998L597.043 115L582.651 62.9398C580.123 59.5138 580.484 54.8994 583.832 51.8118C587.757 48.1931 594.285 48.0481 598.413 51.488H598.413Z" fill="#FFB6B6"/>
<path d="M626 345.001V362H281V344.92L282.86 342.581L392.237 205.022C392.733 204.398 393.395 203.888 394.166 203.536C394.937 203.184 395.794 203 396.663 203C397.533 203 398.39 203.184 399.161 203.536C399.932 203.888 400.594 204.398 401.09 205.022L474.442 297.261L526.657 232.173C527.153 231.553 527.814 231.046 528.583 230.696C529.352 230.346 530.207 230.163 531.074 230.163C531.941 230.163 532.795 230.346 533.564 230.696C534.333 231.046 534.994 231.553 535.491 232.173L624.14 342.678L626 345.001Z" fill="#1B0551"/>
<path d="M837 329.247V361H522V329.096L523.698 324.726L623.564 67.7775C624.017 66.6117 624.621 65.6592 625.325 65.0014C626.029 64.3436 626.812 64 627.606 64C628.4 64 629.183 64.3436 629.886 65.0014C630.59 65.6592 631.194 66.6117 631.647 67.7775L698.621 240.073L746.295 118.494C746.749 117.334 747.352 116.388 748.054 115.734C748.756 115.08 749.537 114.739 750.328 114.739C751.12 114.739 751.9 115.08 752.602 115.734C753.304 116.388 753.908 117.334 754.361 118.494L835.302 324.908L837 329.247Z" fill="#1B0551"/>
<path d="M738 371.756V391H1083V371.664L1081.14 369.016L971.763 213.289C971.267 212.583 970.605 212.006 969.834 211.607C969.063 211.208 968.206 211 967.337 211C966.467 211 965.61 211.208 964.839 211.607C964.068 212.006 963.406 212.583 962.91 213.289L889.558 317.711L837.343 244.027C836.847 243.324 836.186 242.75 835.417 242.354C834.648 241.958 833.793 241.751 832.926 241.751C832.059 241.751 831.205 241.958 830.436 242.354C829.667 242.75 829.006 243.324 828.509 244.027L739.86 369.126L738 371.756Z" fill="#1B0551"/>
<path d="M1440.5 326V387H1007V360.682L1009.53 357.077L1158.22 145.116C1158.89 144.154 1159.79 143.369 1160.84 142.826C1161.89 142.283 1163.05 142 1164.24 142C1165.42 142 1166.58 142.283 1167.63 142.826C1168.68 143.369 1169.58 144.154 1170.25 145.116L1269.97 287.245L1340.95 186.953C1341.63 185.996 1342.52 185.215 1343.57 184.676C1344.62 184.137 1345.78 183.855 1346.96 183.855C1348.13 183.855 1349.3 184.137 1350.34 184.676C1351.39 185.215 1352.28 185.996 1352.96 186.953L1437.97 322.421L1440.5 326Z" fill="#1B0551"/>
<path d="M345 326.108V343H0V326.027L1.85985 323.703L111.237 187.01C111.733 186.389 112.395 185.883 113.166 185.533C113.937 185.183 114.794 185 115.663 185C116.533 185 117.39 185.183 118.161 185.533C118.932 185.883 119.594 186.389 120.09 187.01L193.442 278.668L245.657 213.99C246.153 213.373 246.814 212.869 247.583 212.522C248.352 212.174 249.207 211.992 250.074 211.992C250.941 211.992 251.795 212.174 252.564 212.522C253.333 212.869 253.994 213.373 254.491 213.99L343.14 323.8L345 326.108Z" fill="#1B0551"/>
<path d="M671 44.9999C671 56.9347 666.259 68.3806 657.82 76.8198C649.381 85.2589 637.935 90 626 90C614.065 90 602.619 85.2589 594.18 76.8198C585.741 68.3806 581 56.9347 581 44.9999C581 43.5736 581.069 42.1703 581.198 40.7821C582.283 29.2638 587.762 18.6057 596.497 11.0207C605.233 3.4358 616.555 -0.493186 628.111 0.049596C639.668 0.592378 650.571 5.56524 658.558 13.9356C666.544 22.306 671 33.4307 671 44.9999V44.9999Z" fill="#34BC3D"/>
<path d="M640.252 48.4739C639.132 47.0474 637.66 45.9176 635.97 45.189C633.886 44.3378 631.734 43.6527 629.536 43.1406V30.9565C632.916 31.4504 636.085 32.8511 638.686 35.0001L641.238 29.7275C639.771 28.4602 638.086 27.4512 636.26 26.7459C634.236 25.9516 632.111 25.4235 629.943 25.1755V19H624.033V25.2362C621.751 25.4846 619.55 26.201 617.575 27.3377C615.792 28.3608 614.29 29.7873 613.199 31.4951C612.158 33.1619 611.619 35.0775 611.642 37.0258C611.54 39.137 612.171 41.2204 613.434 42.9433C614.597 44.435 616.132 45.6151 617.896 46.3725C620.013 47.2487 622.202 47.9517 624.44 48.4739V60.1497C620.452 59.8582 616.652 58.3886 613.552 55.9392L611 61.2194C612.733 62.6083 614.704 63.6919 616.824 64.421C619.146 65.2264 621.572 65.7166 624.033 65.8776V72H629.943V65.7638C633.225 65.4162 636.304 64.0482 638.718 61.8643C639.781 60.8762 640.62 59.685 641.184 58.366C641.747 57.047 642.021 55.629 641.99 54.2018C642.088 52.1579 641.476 50.141 640.252 48.4739V48.4739ZM624.44 41.8508C623 41.4277 621.662 40.7314 620.503 39.8025C620.043 39.4063 619.68 38.9165 619.439 38.3682C619.198 37.8199 619.086 37.2268 619.109 36.6313C619.067 35.28 619.579 33.9676 620.534 32.9821C621.593 31.9482 622.958 31.2612 624.44 31.0172V41.8508ZM633.246 57.9951C632.248 58.9877 630.947 59.6444 629.536 59.869V49.8244C630.885 50.1752 632.147 50.7868 633.246 51.6224C633.663 51.9673 633.994 52.3988 634.215 52.8847C634.436 53.3707 634.541 53.8987 634.522 54.4294C634.576 55.7315 634.121 57.0053 633.246 57.9951V57.9951Z" fill="white"/>
<path d="M779 313.819C779 313.819 699.211 294.465 702.28 316.584C703.639 326.376 659.133 320.188 645.395 318.732L658.806 266.355L636.567 317.653C632.516 317.082 630 316.64 630 316.64L659.317 252.07C659.317 252.07 662.386 189.399 656.095 174.035C649.804 158.672 665.455 152.534 665.455 152.534C680.914 142.2 688.295 131.991 681.73 122L715.578 124.627L718.647 139.631L747.432 152.257L733.406 227.003C733.406 227.003 731.581 228.817 732.786 230.306C733.991 231.794 734.2 232.98 732.05 234.23C729.899 235.481 730.902 240.347 730.902 240.347C730.902 240.347 731.004 243.356 733.009 243.566C735.014 243.775 734.331 245.585 734.331 245.585C734.331 245.585 734.199 249.239 736.141 248.35C737.446 247.753 766.4 297.91 768.608 297.109C770.817 296.308 770.055 302.224 771.97 302.492C773.885 302.76 773.898 305.588 774.725 306.919C777.362 311.163 779 313.82 779 313.82V313.819Z" fill="#CCCCCC"/>
<path d="M688.553 189.735L692 160.251L647.033 150.294L601.874 74L587.685 79.5741V92.5802C587.685 92.5802 575.524 103.728 616.541 156.764L628.224 171.546L692 199L688.553 189.735V189.735Z" fill="#CCCCCC"/>
<path d="M650.027 14.6867C648.511 20.0176 652.865 25.4773 658.939 25.836L674.783 68.5192L688.915 67.4584L669.687 16.8873C669.709 12.8143 666.671 9.1032 662.105 8.08497C656.754 6.89145 651.347 9.84714 650.027 14.6867L650.027 14.6867Z" fill="#FFB6B6"/>
<path d="M747.154 174.476V174.476C758.744 167.61 760.169 152.744 750.059 144.177L701.28 102.843C701.28 102.843 703.119 38.0939 684.162 37.936L680.064 26.3555L658.014 35.872L660.693 45.4432C660.693 45.4432 662.136 85.0509 675.09 96.8628C675.324 113.547 683.056 117.97 683.056 117.97L747.154 174.476Z" fill="#CCCCCC"/>
<path d="M703 132C719.016 132 732 120.359 732 106C732 91.6406 719.016 80 703 80C686.984 80 674 91.6406 674 106C674 120.359 686.984 132 703 132Z" fill="#FFB6B6"/>
<path d="M772.974 178.12C772.769 181.943 770.807 185.613 767.17 187.365C766.018 187.902 764.81 188.311 763.562 188.605C763.521 188.221 763.452 187.85 763.384 187.48C762.245 181.189 759.418 175.193 755.288 170.129C753.326 167.726 758.759 181.355 760.132 189.027C758.883 186.7 752.53 171.766 752.118 171.204C752.118 171.229 752.146 171.306 752.201 171.472C754.259 177.264 755.192 183.401 755.041 189.512C747.083 200.086 740.154 202.937 733.773 201.748C735.694 196.915 735.489 191.315 732.895 186.738C732.182 191.238 729.671 195.419 726.076 198.488C723.057 196.532 720.121 193.936 717.198 191.187C721.795 186.035 724.978 179.808 726.296 173.224C728.175 164.006 726.378 154.174 721.342 146.055C723.771 162.535 717.006 179.86 704.122 191.315C701.076 190.881 698.332 189.755 697.111 187.224C695.972 184.846 696.74 182.033 698.181 179.808C699.594 177.583 694.641 166.831 696.301 164.76C703.244 156.142 709.844 152 702.407 143.753C698.99 139.956 694.229 137.041 692.185 132.464C689.605 126.698 692.089 120.113 695.08 114.539C698.085 108.952 708.088 111.56 701.392 111.048C689.88 110.179 694.902 101.472 692.377 97.8412C690.964 95.8079 687.479 96.1406 684.871 96.115C683.952 93.2383 682.663 90.4509 681.043 87.8426C681.455 90.6681 681.606 93.5324 681.496 96.3835C679.411 96.7156 676.021 99.9763 674.224 101.024L673.565 101.318C671.027 99.9631 671.404 97.4293 671.39 94.6936C671.362 91.9574 665.709 89.3366 667.274 87.0224C671.431 80.8981 670.094 77.4482 677.805 76.5149C685.517 75.5816 692.693 72.8584 698.387 77.7934C703.875 67.5651 725.239 76.5917 730.398 78.522C735.557 80.4654 739.715 84.5825 741.471 89.492C745.56 100.871 743.488 106.113 750.527 116.15C756.551 124.741 765.071 120.688 769.064 130.252C771.575 136.287 768.584 142.96 765.922 148.932C763.26 154.915 757.758 168.531 764.618 167.56C770.464 166.716 773.304 172.137 772.974 178.12V178.12Z" fill="#2F2E41"/>
<rect width="1440" height="121" transform="translate(0 330)" fill="#1B0551"/>
</g>
<defs>
<filter id="filter0_d_36_14714" x="-47" y="114" width="606" height="267" filterUnits="userSpaceOnUse" color-interpolation-filters="sRGB">
<feFlood flood-opacity="0" result="BackgroundImageFix"/>
<feColorMatrix in="SourceAlpha" type="matrix" values="0 0 0 0 0 0 0 0 0 0 0 0 0 0 0 0 0 0 127 0" result="hardAlpha"/>
<feOffset dy="-4"/>
<feGaussianBlur stdDeviation="2"/>
<feComposite in2="hardAlpha" operator="out"/>
<feColorMatrix type="matrix" values="0 0 0 0 0 0 0 0 0 0 0 0 0 0 0 0 0 0 0.02 0"/>
<feBlend mode="normal" in2="BackgroundImageFix" result="effect1_dropShadow_36_14714"/>
<feBlend mode="normal" in="SourceGraphic" in2="effect1_dropShadow_36_14714" result="shape"/>
</filter>
<filter id="filter1_d_36_14714" x="-71" y="158" width="973" height="267" filterUnits="userSpaceOnUse" color-interpolation-filters="sRGB">
<feFlood flood-opacity="0" result="BackgroundImageFix"/>
<feColorMatrix in="SourceAlpha" type="matrix" values="0 0 0 0 0 0 0 0 0 0 0 0 0 0 0 0 0 0 127 0" result="hardAlpha"/>
<feOffset dy="-4"/>
<feGaussianBlur stdDeviation="2"/>
<feComposite in2="hardAlpha" operator="out"/>
<feColorMatrix type="matrix" values="0 0 0 0 0 0 0 0 0 0 0 0 0 0 0 0 0 0 0.02 0"/>
<feBlend mode="normal" in2="BackgroundImageFix" result="effect1_dropShadow_36_14714"/>
<feBlend mode="normal" in="SourceGraphic" in2="effect1_dropShadow_36_14714" result="shape"/>
</filter>
<filter id="filter2_d_36_14714" x="737" y="184" width="583" height="267" filterUnits="userSpaceOnUse" color-interpolation-filters="sRGB">
<feFlood flood-opacity="0" result="BackgroundImageFix"/>
<feColorMatrix in="SourceAlpha" type="matrix" values="0 0 0 0 0 0 0 0 0 0 0 0 0 0 0 0 0 0 127 0" result="hardAlpha"/>
<feOffset dy="-4"/>
<feGaussianBlur stdDeviation="2"/>
<feComposite in2="hardAlpha" operator="out"/>
<feColorMatrix type="matrix" values="0 0 0 0 0 0 0 0 0 0 0 0 0 0 0 0 0 0 0.02 0"/>
<feBlend mode="normal" in2="BackgroundImageFix" result="effect1_dropShadow_36_14714"/>
<feBlend mode="normal" in="SourceGraphic" in2="effect1_dropShadow_36_14714" result="shape"/>
</filter>
<filter id="filter3_d_36_14714" x="894" y="134" width="583" height="267" filterUnits="userSpaceOnUse" color-interpolation-filters="sRGB">
<feFlood flood-opacity="0" result="BackgroundImageFix"/>
<feColorMatrix in="SourceAlpha" type="matrix" values="0 0 0 0 0 0 0 0 0 0 0 0 0 0 0 0 0 0 127 0" result="hardAlpha"/>
<feOffset dy="-4"/>
<feGaussianBlur stdDeviation="2"/>
<feComposite in2="hardAlpha" operator="out"/>
<feColorMatrix type="matrix" values="0 0 0 0 0 0 0 0 0 0 0 0 0 0 0 0 0 0 0.02 0"/>
<feBlend mode="normal" in2="BackgroundImageFix" result="effect1_dropShadow_36_14714"/>
<feBlend mode="normal" in="SourceGraphic" in2="effect1_dropShadow_36_14714" result="shape"/>
</filter>
<clipPath id="clip0_36_14714">
<rect width="1440" height="451" fill="white"/>
</clipPath>
</defs>
</svg>
